<?xml version="1.0" encoding="UTF-8" standalone="no"?>
<svg width="43px" height="40px" viewBox="0 0 43 40" version="1.1" xmlns="http://www.w3.org/2000/svg" xmlns:xlink="http://www.w3.org/1999/xlink">
    <!-- Generator: Sketch 50.2 (55047) - http://www.bohemiancoding.com/sketch -->
    <title>heart</title>
    <desc>Created with Sketch.</desc>
    <defs></defs>
    <g id="Mockups" stroke="none" stroke-width="1" fill="none" fill-rule="evenodd">
        <g id="Mobile" transform="translate(-98.000000, -846.000000)" fill="#EF4446">
            <g id="Expanded-(Portrait)" transform="translate(-99.000000, -36.000000)">
                <g id="Group-2" transform="translate(197.000000, 875.000000)">
                    <path d="M42.5336472,16.5182701 L42.5336472,17.5394635 C42.5207546,17.6156701 42.4999053,17.6914937 42.4961183,17.7681683 C42.4040407,19.6497172 41.9530987,21.450762 41.2727286,23.1990876 C40.3465062,25.5791491 39.052952,27.7566313 37.5849439,29.8355258 C35.43597,32.8788098 32.9970197,35.6822836 30.3903385,38.3337697 C27.562356,41.2103865 24.6675706,44.0214341 21.801421,46.8606071 C21.7528718,46.9086457 21.6977274,46.9500466 21.6393066,47 C21.5655679,46.9343032 21.501871,46.878946 21.4397058,46.8219294 C20.5981574,46.050588 19.754992,45.2809911 18.9156561,44.5072243 C15.6723458,41.5173402 12.4597564,38.4958842 9.47178706,35.2458936 C7.32370671,32.9094882 5.30055236,30.4734738 3.5966486,27.7871395 C2.25739599,25.6758221 1.14386967,23.4591941 0.514218827,21.0253073 C0.0903810105,19.3870577 -0.138366314,17.7233635 0.0904235602,16.0336287 C0.463244256,13.2803637 1.79343378,11.0650122 4.01159352,9.4116575 C6.84770293,7.29765949 10.0547609,6.85837612 13.4530372,7.49232448 C15.5992879,7.89267485 17.2974049,9.06491979 18.6937593,10.7097645 C19.6480645,11.8338857 20.4245545,13.0767207 21.1453043,14.3574249 C21.1802376,14.4195475 21.2209577,14.4783937 21.2739746,14.5626422 C21.3560956,14.4075059 21.4185161,14.2888347 21.4816173,14.1705039 C22.0825896,13.0432766 22.731473,11.9461745 23.5167281,10.93481 C24.5591539,9.59215344 25.7960318,8.48986025 27.3768392,7.81331961 C28.5587004,7.30757357 29.8005993,7.08805954 31.0779846,7.01993743 C33.9281779,6.86794981 36.5203072,7.57882807 38.7712303,9.36259767 C40.7751521,10.9505534 42.0192636,13.0059179 42.4126358,15.5507319 C42.4622913,15.8718121 42.4937781,16.1957007 42.5336472,16.5182701" id="heart"></path>
                </g>
            </g>
        </g>
    </g>
</svg>