<svg xmlns="http://www.w3.org/2000/svg" viewBox="0 0 475.1 173.4"><title>INLI-horiz</title><path d="M135.5,40h0A218.2,218.2,0,0,0,130,66.4c-3.7,22.9-6,51.8-6,83.1H101.4C101.4,74.3,88.7,13.4,73,13.4s-28.3,66-28.3,147.4H22C22,73.2,44.9,2.1,73,2.1c16.1,0,30.4,21.4,39.7,54.8a182.3,182.3,0,0,1,8.7-24.5c.2-.5.5-1,.7-1.6l.2-.3.2.2h0Z" fill="#ffc629"/><path d="M196.2,79.4l-23.1-19c-5.1-28.9-12.5-47-20.7-47-5.2,0-10,6.7-14.2,18.3l-11.6-9.4C134.2,9.5,143,2.1,152.4,2.1,171,2.1,187.3,33.1,196.2,79.4Z" fill="#ffc629"/><path d="M203.4,160.8H180.7c0-21.5-.9-42-2.5-60.4-1-11.8-2.3-22.8-3.9-32.7L197,83.9c.9,5,1.7,10.2,2.4,15.5A453.5,453.5,0,0,1,203.4,160.8Z" fill="#ffc629"/><path d="M200,98.8c-.2.2-.3.5-.6.6a1.4,1.4,0,0,1-1.5.4,2.4,2.4,0,0,1-1-1.9,33.3,33.3,0,0,1,.1-6.3,10,10,0,0,0-1.3-6.1,1.6,1.6,0,0,0-1.2-.8,1.7,1.7,0,0,0-1.4.9,12,12,0,0,0-1.5,5.3,68.6,68.6,0,0,0,1.3,20.7,4.4,4.4,0,0,1,.2,2.3,1.8,1.8,0,0,1-1.6,1.5,1.9,1.9,0,0,1-1.6-1.3,7.2,7.2,0,0,1-.1-2.1,94.4,94.4,0,0,0-.5-16.8c-.3-2.3.8-6.6-2.2-7.6l-2.6-.4c-2.4-.5-1.8-4.7-4.4-4.3s-1.8,1.9-2,3.4c-.4,4.1.7,8.2.7,12.4a2.5,2.5,0,0,1-.6,1.7l-.6.2c-.7,0-1-.8-1.2-1.5-1.2-6.2.1-12.5-.6-18.7-.3-2.7-.7-5.4-1-8.2-.2-1.3-.2-2.7-.5-4.1v-.4c-.1-.3,22.7,16.2,22.7,16.2l1.8,1.3a19.5,19.5,0,0,1,.5,3.7c.3,2.5.6,4.9.8,7.4A5.3,5.3,0,0,1,200,98.8Z" fill="#c02026"/><path d="M135.5,40.1v.5c-.2,1.2-.9,3-1.2,4.3a33.9,33.9,0,0,0-1,8.4c0,3.6-.7,6.9-.7,10.5s.1,8.9.5,13.2c.2,1.8,1.4,10.4-.9,11.4s-2.2-4.6-2.2-5.9c0-5.3-.2-10.7,0-16.1,0-3.2.2-6.4.5-9.5s2.5-20.4-3.8-16.5c-2,1.3-1.4,3.9-1.4,6v9.4c0,2.3-.2,4.5-.2,6.8s.2,5.3-2.2,3.3-.4-5.1-.4-6.7V49c0-3.8.6-8.1-.1-11.8-.2-1-1.1-3.2-1-4.8a1.9,1.9,0,0,1,.7-1.6h.4l13,9.3Z" fill="#c02026"/><path d="M72.3,87.1l-.6-.2C71,85.4,73.8,86,72.3,87.1Z" fill="#c02026" fill-rule="evenodd"/><path d="M65.6,88.2c.2,0,.4,0,.4.2S65.5,88.4,65.6,88.2Z" fill="#c02026" fill-rule="evenodd"/><path d="M35.8,88.8c-.2.1-.2.1-.5,0S36,88.1,35.8,88.8Z" fill="#c02026" fill-rule="evenodd"/><path d="M83.8,88.4h0Z" fill="#c02026" fill-rule="evenodd"/><path d="M41,91c.3-.1.3.3.1.4S40.9,91.1,41,91Z" fill="#c02026" fill-rule="evenodd"/><path d="M84.5,94.2c.1.2.3.2.5.3a2.5,2.5,0,0,0,.2,1c-.4,0-.3.6-.7.6s-1.5-1.8-.2-1.7-.3-.5-.4-.8.1-1.5,1-1.3.6,1,.2,1.7Z" fill="#c02026" fill-rule="evenodd"/><path d="M68.8,94.5a1.6,1.6,0,0,1,0,1.5C66.8,96.7,67.1,93.7,68.8,94.5Z" fill="#c02026" fill-rule="evenodd"/><path d="M93.5,94.5c0-.1.1.3.1.4a1.1,1.1,0,0,0,1.2-.3c.1.8.6,1.3.6,2.2a1.8,1.8,0,1,1-3.5-.2c.2-.8.6-1,.9-1.7S93.5,95,93.5,94.5Z" fill="#c02026" fill-rule="evenodd"/><path d="M86.5,95.4c.3.1.6.2.7.4a1,1,0,0,0,.5-.4c.3.8.9,1.2,1,2s-.3,2.4-1.5,2.6-3,.9-2.2-.7a1.8,1.8,0,0,0-.8-.9c.1-.3.6-.2.3-.7s.6-.8.3-1.2.7-.4.9-.8S86.5,95.8,86.5,95.4Z" fill="#c02026" fill-rule="evenodd"/><path d="M21.4,99.8a1.1,1.1,0,0,1,0,.8.6.6,0,0,1-.8-.8Z" fill="#c02026" fill-rule="evenodd"/><path d="M89.2,101.1c.4-.4,0,.5-.1.1S89.2,101.2,89.2,101.1Z" fill="#c02026" fill-rule="evenodd"/><path d="M59.2,101.9h-.3C58.8,101.6,59.3,101.6,59.2,101.9Z" fill="#c02026" fill-rule="evenodd"/><path d="M27.5,103.6c0,.3-.2.3-.4.3S27.3,103.5,27.5,103.6Z" fill="#c02026" fill-rule="evenodd"/><path d="M17.3,104.3c-.2.2-.4.1-.6,0v-.4C17.1,103.8,17.3,103.9,17.3,104.3Z" fill="#c02026" fill-rule="evenodd"/><path d="M10.5,104.1c1.2,1,2.1,2.3,3.2,3.4-1.4-.3-2.1-2.1-3.2-3.1S10.5,104.2,10.5,104.1Z" fill="#c02026" fill-rule="evenodd"/><path d="M73.4,106.6c.1,0,.2.1.1.3h-.3C73.2,106.7,73.4,106.7,73.4,106.6Z" fill="#c02026" fill-rule="evenodd"/><path d="M10.7,107.2c.9-.2.8,1,.2,1.1A.6.6,0,0,1,10.7,107.2Z" fill="#c02026" fill-rule="evenodd"/><path d="M48.4,108.2c0,.4-.2.5-.5.5S48,107.9,48.4,108.2Z" fill="#c02026" fill-rule="evenodd"/><path d="M94.2,109.1c.3-.3.3.2,0,0Z" fill="#c02026" fill-rule="evenodd"/><path d="M24.5,109.4c-.2,0-.3,0-.3-.2S24.6,109.1,24.5,109.4Z" fill="#c02026" fill-rule="evenodd"/><path d="M17,110.4h.3C17.3,110.7,17,110.5,17,110.4Z" fill="#c02026" fill-rule="evenodd"/><path d="M57.1,111.1c0,.1.2.4.2.2s-.1.5-.1.8a1.6,1.6,0,0,1-.7,0A.6.6,0,0,1,57.1,111.1Z" fill="#c02026" fill-rule="evenodd"/><path d="M29.3,112.1c-.1-.1,0-.1,0-.1h.2v.2h-.2C29.3,112.1,29.4,112.1,29.3,112.1Z" fill="#c02026" fill-rule="evenodd"/><path d="M83.7,112.9c.4.3.3.8,0,1.2S82.3,112.5,83.7,112.9Z" fill="#c02026" fill-rule="evenodd"/><path d="M33.8,113c.3.4-.2.5,0,0Z" fill="#c02026" fill-rule="evenodd"/><path d="M71.9,113.1h.3v.2h-.3Z" fill="#c02026" fill-rule="evenodd"/><path d="M39.1,115.1c.3.4-.2.6,0,0Z" fill="#c02026" fill-rule="evenodd"/><path d="M19.5,115.5c.2-.3.3.1.4.2S19.6,115.5,19.5,115.5Z" fill="#c02026" fill-rule="evenodd"/><path d="M57.4,118h0C57.2,118.3,57.4,118.1,57.4,118Z" fill="#c02026" fill-rule="evenodd"/><path d="M33.8,120.4v.3C33.7,121,33.7,120.5,33.8,120.4Z" fill="#c02026" fill-rule="evenodd"/><path d="M9.1,120.7c.4.4,0,.8-.5.8a.6.6,0,0,1-.3-.7A1,1,0,0,1,9.1,120.7Z" fill="#c02026" fill-rule="evenodd"/><path d="M81.7,121.4c.4-.3,1-.3,1.1.1S81.4,122.6,81.7,121.4Z" fill="#c02026" fill-rule="evenodd"/><path d="M15.3,123.1c.1,0,.2.1.2.3S15.2,123.4,15.3,123.1Z" fill="#c02026" fill-rule="evenodd"/><path d="M52.9,123.2a.6.6,0,0,1-.7.3C52.4,123.4,52.5,123.2,52.9,123.2Z" fill="#c02026" fill-rule="evenodd"/><path d="M17.3,123.9c0-.2.3-.1.3,0S17.3,123.9,17.3,123.9Z" fill="#c02026" fill-rule="evenodd"/><path d="M11.1,124.2h.3v.3C11.2,124.4,11,124.4,11.1,124.2Z" fill="#c02026" fill-rule="evenodd"/><path d="M71.9,124.5h-.3A.2.2,0,1,1,71.9,124.5Z" fill="#c02026" fill-rule="evenodd"/><path d="M64.5,124.7h.9c.1.2.2.3.6.3a2.3,2.3,0,0,1,.3,2.1,2,2,0,0,0-.8.8c-.4-.3-.4-.1-.8,0a1.8,1.8,0,0,1-.7-3.2C64.3,124.8,64.4,125,64.5,124.7Z" fill="#c02026" fill-rule="evenodd"/><path d="M48,125.1c.3.2-.5.1-.5.3S47.9,125.2,48,125.1Z" fill="#c02026" fill-rule="evenodd"/><path d="M45.9,125.2c0,.3-.2.3-.4.3S45.7,125.2,45.9,125.2Z" fill="#c02026" fill-rule="evenodd"/><path d="M50.7,125.5c0,.1-.2.2-.4.2S50.6,125.5,50.7,125.5Z" fill="#c02026" fill-rule="evenodd"/><path d="M56.8,126c.7.5,2,.3,2.2,1.2s-1.2-.8-2.1-.8S56.8,126.2,56.8,126Z" fill="#c02026" fill-rule="evenodd"/><path d="M47.3,126.2c.1.2-.1.2-.3.2S47.1,126.2,47.3,126.2Z" fill="#c02026" fill-rule="evenodd"/><path d="M49.5,128.8c-.8.4-1.5-.3-2.4-.3C47.7,128.2,48.8,128.6,49.5,128.8Z" fill="#c02026" fill-rule="evenodd"/><path d="M51.4,128.7a2.5,2.5,0,0,1-1.7.1A2.5,2.5,0,0,1,51.4,128.7Z" fill="#c02026" fill-rule="evenodd"/><path d="M24.9,129.6c.1,0,.2.1.2.3h-.3Z" fill="#c02026" fill-rule="evenodd"/><path d="M47.2,130.8c.1-.3.3.1.5,0S47.2,130.8,47.2,130.8Z" fill="#c02026" fill-rule="evenodd"/><path d="M49.4,130.7c0,.3-.3.2-.6.2S49.2,130.8,49.4,130.7Z" fill="#c02026" fill-rule="evenodd"/><path d="M10.1,132.9c0,.4,0,.5-.3.7S9.5,132.3,10.1,132.9Z" fill="#c02026" fill-rule="evenodd"/><path d="M48.3,136.2c.3-.2.5.3,0,0Z" fill="#c02026" fill-rule="evenodd"/><path d="M50.6,136.8c-.3.2-.5-.2-1.1-.2S50.3,136.7,50.6,136.8Z" fill="#c02026" fill-rule="evenodd"/><path d="M52.3,136.5h.3C52.6,136.7,52.2,136.7,52.3,136.5Z" fill="#c02026" fill-rule="evenodd"/><path d="M50.8,137c.1-.2.6-.1.5.1Z" fill="#c02026" fill-rule="evenodd"/><path d="M9.6,137.6c1-.4,1,1.3.3,1.4A.7.7,0,0,1,9.6,137.6Z" fill="#c02026" fill-rule="evenodd"/><path d="M25.6,137.7h.3c-.1.1-.2.1-.2.3S25.7,137.8,25.6,137.7Z" fill="#c02026" fill-rule="evenodd"/><path d="M44.8,138.7c-.1.2.1.2.2.3s-.6-.3-.8-.3S44.5,138.7,44.8,138.7Z" fill="#c02026" fill-rule="evenodd"/><path d="M48.4,140c-.3.2-.7.1-.9.2S48.1,139.9,48.4,140Z" fill="#c02026" fill-rule="evenodd"/><path d="M50.1,140.1c.2-.2.5.1.6.2S50.4,140.1,50.1,140.1Z" fill="#c02026" fill-rule="evenodd"/><path d="M27.1,140.7c.2.1,0,.3,0,.4S27.1,140.8,27.1,140.7Z" fill="#c02026" fill-rule="evenodd"/><path d="M17.9,141.1c.1-.2.5-.1.5,0Z" fill="#c02026" fill-rule="evenodd"/><path d="M16.6,142.1a.7.7,0,0,1,.9.2c.6,1.1-1.3,1.6-1.4.6S16,142.3,16.6,142.1Z" fill="#c02026" fill-rule="evenodd"/><path d="M1.9,143.9h.3a.3.3,0,0,1-.3.3C2,144.1,1.8,144,1.9,143.9Z" fill="#c02026" fill-rule="evenodd"/><path d="M54.3,145.3c.3.1,0,.3.2.6S54.3,145.6,54.3,145.3Z" fill="#c02026" fill-rule="evenodd"/><path d="M28.1,145.6c.3.3-.1.5-.1.8S28.1,145.8,28.1,145.6Z" fill="#c02026" fill-rule="evenodd"/><path d="M34.7,145.7c.4.4,0,.8,0,0Z" fill="#c02026" fill-rule="evenodd"/><path d="M40.3,146a1.5,1.5,0,0,1,.7,1.2C40.8,146.8,40.1,146.6,40.3,146Z" fill="#c02026" fill-rule="evenodd"/><path d="M46.8,146.2c.1,0,.1.1.1.2S46.7,146.3,46.8,146.2Z" fill="#c02026" fill-rule="evenodd"/><path d="M70.4,146.9c.2,0,.3.1.3.4h-.5C70.2,147.1,70.4,147.1,70.4,146.9Z" fill="#c02026" fill-rule="evenodd"/><path d="M35,147c.1.1.2.4,0,.5S34.8,147.1,35,147Z" fill="#c02026" fill-rule="evenodd"/><path d="M20.9,148.4c.3.2-.2.2-.2.4S20.8,148.5,20.9,148.4Z" fill="#c02026" fill-rule="evenodd"/><path d="M34.9,148.7c.3-.1.3.4,0,.3Z" fill="#c02026" fill-rule="evenodd"/><path d="M55.1,149.3c.1.4-.7.2-.6-.1S55.1,149,55.1,149.3Z" fill="#c02026" fill-rule="evenodd"/><path d="M5.7,149.7c0,.2-.1.2-.1.4s-.5-.1-.5-.4S5.6,149.4,5.7,149.7Z" fill="#c02026" fill-rule="evenodd"/><path d="M50.8,150.7h0Z" fill="#c02026" fill-rule="evenodd"/><path d="M.1,151.3H.4c0,.4-.1.5-.4.4A.7.7,0,0,1,.1,151.3Z" fill="#c02026" fill-rule="evenodd"/><path d="M35.3,151.7c.1-.3.1.2.1.3S35.3,151.8,35.3,151.7Z" fill="#c02026" fill-rule="evenodd"/><path d="M37.9,151.6v.2c-.2,0-.2-.1-.4,0S37.7,151.6,37.9,151.6Z" fill="#c02026" fill-rule="evenodd"/><path d="M41.6,151.8a1.4,1.4,0,0,1,.6,1.5c0-.1-.4-.5-.1-.5S41.8,152.2,41.6,151.8Z" fill="#c02026" fill-rule="evenodd"/><path d="M67.6,152.2c.1.5-.2.7-.7.7S67.3,151.6,67.6,152.2Z" fill="#c02026" fill-rule="evenodd"/><path d="M77.4,153.1c.3,1.8-2.7,1.7-2.1-.1S77,152.3,77.4,153.1Z" fill="#c02026" fill-rule="evenodd"/><path d="M34.6,153.6c.4.6.2,1.2.3,2.2A5.3,5.3,0,0,1,34.6,153.6Z" fill="#c02026" fill-rule="evenodd"/><path d="M34.2,153.8c.4.4,0,1,.2,1.4S34.3,154.2,34.2,153.8Z" fill="#c02026" fill-rule="evenodd"/><path d="M25,154.2c.2.1-.1.4-.1.5S25,154.4,25,154.2Z" fill="#c02026" fill-rule="evenodd"/><path d="M33.3,155c.1-.2.1.3.1.4S33.3,155.2,33.3,155Z" fill="#c02026" fill-rule="evenodd"/><path d="M34.8,156.9c.1-.3.1.3.1.4S34.8,157,34.8,156.9Z" fill="#c02026" fill-rule="evenodd"/><path d="M80.4,157a1.7,1.7,0,0,1,1.7.3C81.8,158,80.7,157.3,80.4,157Z" fill="#c02026" fill-rule="evenodd"/><path d="M64.1,157.9c-.2,0-.2-.2-.5-.2S65.1,157.2,64.1,157.9Z" fill="#c02026" fill-rule="evenodd"/><path d="M34.8,157.5c.1-.2-.2.7,0,0Z" fill="#c02026" fill-rule="evenodd"/><path d="M34.8,158c.1,0,.2.7.1,1.1S34.9,158.3,34.8,158Z" fill="#c02026" fill-rule="evenodd"/><path d="M34.2,159.1c.1-.3-.1.7,0,0Z" fill="#c02026" fill-rule="evenodd"/><path d="M46.8,159.8a1.6,1.6,0,0,1-.1,1C44.8,162.2,44.9,158.2,46.8,159.8Z" fill="#c02026" fill-rule="evenodd"/><path d="M41.9,160.9h-.4C41.3,160.6,42,160.4,41.9,160.9Z" fill="#c02026" fill-rule="evenodd"/><path d="M71.2,160.6c.2,0,.2.5-.1.4s-.1-.2-.1-.3Z" fill="#c02026" fill-rule="evenodd"/><path d="M54.3,161.2c.5.1-.3.4,0,0Z" fill="#c02026" fill-rule="evenodd"/><path d="M46.5,161.6c-.1.3-.2.3-.4.1S46.3,161.6,46.5,161.6Z" fill="#c02026" fill-rule="evenodd"/><path d="M39.9,162h.4c-.1.1-.1.2,0,.2s-.2.1-.4.1S39.9,162.1,39.9,162Z" fill="#c02026" fill-rule="evenodd"/><path d="M61.7,168.9a.5.5,0,0,1-.1.7h-.4C60.7,169.2,61.1,168.5,61.7,168.9Z" fill="#c02026" fill-rule="evenodd"/><path d="M93.9,101.9c-.2.1-.2.3-.5.2S93.7,101.9,93.9,101.9Z" fill="#c02026" fill-rule="evenodd"/><path d="M24.2,114.3c.1-.1.3.9,0,0Z" fill="#c02026" fill-rule="evenodd"/><path d="M19.1,114.6c0-.2.2.2.3.3S19.2,114.7,19.1,114.6Z" fill="#c02026" fill-rule="evenodd"/><path d="M22.8,115.4c.1-.2.3.1.4.2S23,115.4,22.8,115.4Z" fill="#c02026" fill-rule="evenodd"/><path d="M24.7,117.7c.1-.1.5.8,0,0Z" fill="#c02026" fill-rule="evenodd"/><path d="M46.6,128.7a2.8,2.8,0,0,0-.5,3c-.8.7-.7,2.7-.3,3.4s-.7.1-1,.5-.1,1.4-.4,2,.7.6.8,1.1a2.5,2.5,0,0,0-.9-.4c-.1-.3.2.1.2-.2s-.2-.2-.3-.3-1.4,1.9-2.6,2.3a6,6,0,0,1-2.1,1.4,9,9,0,0,0-.3,1.6c.3.2.4.7.7.7s.1.9-.2,1-.7-2.7-1.4-2.9-1,.4-1.6.5-1.3.9-1.9.8-.6-.4-.9-.4-1,.2-1.5.1-1.7-1.3-3-.5-.4-.4-.5-.4-.2,2.1-1.3,2.5c-.3-1.4.9-2.7.4-4.1s-.2-.5-.4-.2a2.9,2.9,0,0,0,0-3.2h-.4c-.1.1-.1.4-.2.5s-.1-.2-.4-.1a4.6,4.6,0,0,0,.7-1.4c0-.2-.2-.1-.1-.3h-.3c-.3-.1.2-.1.1-.3s-.5,0-.7,0-.7-1-.4-2.1-.5-.3-.5-.7.3-.5.3-.9-.3-.3-.5-.5c1-2.2-1.6-3.3-2.3-4.8s-.2.1-.5.1-3.2-.6-4.6-.7-.2-.3-.1-.5,1,.1,1.4,0-.4-1.2-1-1.3-.7-.8-1-1.2-1.9-1.4-3.4-1.6c.6-.3-.2-.9-.5-1.1s-1.8-.8-1.5-1.9,1,.6,1.4,1a5.9,5.9,0,0,1,3.2,2.6c1.3-.3,1.3.7,1.9,1.1s-.1.2-.1.4,5.3,1.7,5.5-1c.9.5,1.6-.2,2-.8s-1.6-1.4-2.4-2.2.1-.5.4-.5,1.3,2,2.6,2-.2-.3-.2-.6.3.4.5.5,1.2.2,1.6-.1,3.8,2,4.9.8l.6.2c.3-.3.8-.1,1.1-.2a6.3,6.3,0,0,0,3.1.4,5,5,0,0,1,1.3-.4c.4,0,.7.2,1.1.1s1.4-2.2,2.6-2.9c.1,1.7-1.9,2.2-1.8,3.9.5.1.6-.2,1.1-.2s-.2.9.3,1.2.6-.4,1.1-.1-.3.6-.5.9,1.8,1,2.7,1.4c-1.1.3-1,2.2-.4,3s1-.4,1.4-.1S46.6,128.7,46.6,128.7Z" fill="#c02026" fill-rule="evenodd"/><path d="M52.4,123.9c.1.2-.3.1-.3.2S52.3,123.9,52.4,123.9Z" fill="#c02026" fill-rule="evenodd"/><path d="M50.1,124.5c.1.1-1,.4,0,0Z" fill="#c02026" fill-rule="evenodd"/><path d="M48.9,124.9c.2,0,0,.1,0,.3h0c-.1,0-.1,0-.1.1S49,125,48.9,124.9Z" fill="#c02026" fill-rule="evenodd"/><path d="M47.3,125.2c-.1.4-.7.3-.8.4s.1-.2.5-.3S47.3,125.5,47.3,125.2Z" fill="#c02026" fill-rule="evenodd"/><path d="M49.3,125.3Z" fill="#c02026" fill-rule="evenodd"/><path d="M23.4,130.6c.1-.1.3.4.7.2s-.1.1-.1.3-.4-.2-.8-.2S23.8,130.8,23.4,130.6Z" fill="#c02026" fill-rule="evenodd"/><path d="M51.8,131.8c.2.4-.4,0-.4.3S51.7,131.9,51.8,131.8Z" fill="#c02026" fill-rule="evenodd"/><path d="M48.7,132.9c.2-.2.5.1.8,0S49,132.8,48.7,132.9Z" fill="#c02026" fill-rule="evenodd"/><path d="M59.2,133.6c.2,0-.1.3-.3.2s0-.3,0-.5h.3C59.3,133.5,59.1,133.8,59.2,133.6Z" fill="#c02026" fill-rule="evenodd"/><path d="M47,135.6c-.1-.2.5.1.7.2s-.5-.2-.4,0h0Z" fill="#c02026" fill-rule="evenodd"/><path d="M25.3,138.3c-.2.4-.5.1,0,0Z" fill="#c02026" fill-rule="evenodd"/><path d="M45.2,139.1l.5.2C45.5,139.5,45.4,139.3,45.2,139.1Z" fill="#c02026" fill-rule="evenodd"/><path d="M29,143.5c.2-.2,0,.3-.1.4S29,143.6,29,143.5Z" fill="#c02026" fill-rule="evenodd"/><path d="M28.8,144c.2.1-.2.4-.2.6S28.6,144,28.8,144Z" fill="#c02026" fill-rule="evenodd"/><path d="M23.7,144.4c.1.7-.6,1.2-1,1.6S23.5,145,23.7,144.4Z" fill="#c02026" fill-rule="evenodd"/><path d="M27.7,146.6v.8C27.2,147.4,27.6,146.8,27.7,146.6Z" fill="#c02026" fill-rule="evenodd"/><path d="M41.1,147.9c.1-.2.4.2.2.3s0-.1,0-.1h-.2Z" fill="#c02026" fill-rule="evenodd"/><path d="M26.3,149.5a7.3,7.3,0,0,1-.7,1.9A4.9,4.9,0,0,1,26.3,149.5Z" fill="#c02026" fill-rule="evenodd"/><path d="M40.9,149.7c.3.2.1.6.4.9S40.9,150.1,40.9,149.7Z" fill="#c02026" fill-rule="evenodd"/><path d="M26.9,150c.3.1-.1.2-.1.3S26.9,150.1,26.9,150Z" fill="#c02026" fill-rule="evenodd"/><path d="M26.5,150.8c.1.4-.2.9-.5,1.4A2.9,2.9,0,0,1,26.5,150.8Z" fill="#c02026" fill-rule="evenodd"/><path d="M24.5,153.5c.1.3-.2.7-.3,1.1S24.4,153.8,24.5,153.5Z" fill="#c02026" fill-rule="evenodd"/><path d="M34.6,160.8c-.3,0-.3-.3-.5-.5S35.3,160.4,34.6,160.8Z" fill="#c02026" fill-rule="evenodd"/><path d="M66.8,108.1c.7.3,1.3.3,1.5,1A1.4,1.4,0,0,1,66.8,108.1Z" fill="#c02026" fill-rule="evenodd"/><path d="M91.1,108.3l.4.4c.4.1.3-.3.6-.3a1.5,1.5,0,0,0,1.4,1,12.9,12.9,0,0,0,.5,2.1.9.9,0,0,1-.3.6c.2.7-.5,1-.6,1.6s-.6,0-.5.4a3.9,3.9,0,0,1-2.1.3,5.7,5.7,0,0,1-2.3-2.3c.7-.2.4-1.1.3-1.6l.6-.7a.8.8,0,0,0-.2-.5C89.6,109.1,90.3,108.6,91.1,108.3Z" fill="#c02026" fill-rule="evenodd"/><path d="M56.6,124.2c-.1.9-1.4,1-1.1-.3S56.3,123.8,56.6,124.2Z" fill="#c02026" fill-rule="evenodd"/><path d="M25.3,135.6c.3.3.9.3.9,1s-.2-.6-.3-.1-.1-.6-.7-.5S25.3,135.8,25.3,135.6Z" fill="#c02026" fill-rule="evenodd"/><path d="M28.7,140.9c2.5,2.9,2.8,7.4,3.1,11,.6,6.4-.1,12.5-.3,18.9,0,2.9,1.2,3.4,2.6,1.2s.2-5.7.1-7.7c0-3.9-.4-8-.3-12a44.9,44.9,0,0,1,.4-6.4c.3-2.2,1.2-3.1,2.2-5" fill="#c02026" fill-rule="evenodd"/><path d="M192.5,21.3l-.8.5h-.1a1.9,1.9,0,0,1,1-.5h.1C192.7,21.2,192.6,21.4,192.5,21.3Z" fill="#c02026" fill-rule="evenodd"/><path d="M187.1,16.3c0,.2-.1.3-.3.5s-.5,1-.9.9a.1.1,0,0,1,0-.2c-.1-.2-.1-.3-.3-.3s0,.2-.1.3-.5,0-.6-.4l.3-.2h.1a14.7,14.7,0,0,1,1.7-.7Z" fill="#c02026" fill-rule="evenodd"/><path d="M185.9,15.3c.2.2,0,.7-.3.4S185.8,15.4,185.9,15.3Z" fill="#c02026" fill-rule="evenodd"/><path d="M170.5,2.3c0,.1-.1-.1-.1.1s-.2-.2-.1-.3S170.4,2.2,170.5,2.3Z" fill="#c02026" fill-rule="evenodd"/><path d="M190.2,19.8c.1.2-.2,0,0,.2h0Z" fill="#c02026" fill-rule="evenodd"/><path d="M184,14.7h.1c-.1.1-.2.3-.4.2h.1Z" fill="#c02026" fill-rule="evenodd"/><path d="M202.1,34a.3.3,0,0,1-.1.2l-.2-.2C201.9,34,202,33.9,202.1,34Z" fill="#c02026" fill-rule="evenodd"/><path d="M173.3,9c0-.2.1,0,.1.1s-.1-.1-.2-.2h.1C173.3,8.9,173.2,8.9,173.3,9Z" fill="#c02026" fill-rule="evenodd"/><path d="M183.4,18c.2.1-.2.5-.2.1Z" fill="#c02026" fill-rule="evenodd"/><path d="M192.8,27.4h-.1c-.2-.1-.2-.1-.3,0s.1-.2,0-.1Z" fill="#c02026" fill-rule="evenodd"/><path d="M180.8,16.9c0,.2.2.3.1.4a.3.3,0,0,0-.1-.2h-.3s.1-.1,0-.1h.2C180.7,17,180.8,17,180.8,16.9Z" fill="#c02026" fill-rule="evenodd"/><path d="M180.9,17.3a.9.9,0,0,1-.1.5c-.2,0-.3-.2-.4-.3S180.8,17.6,180.9,17.3Z" fill="#c02026" fill-rule="evenodd"/><path d="M185.6,21.9a.2.2,0,0,1-.2.2C185.2,21.9,185.6,21.6,185.6,21.9Z" fill="#c02026" fill-rule="evenodd"/><path d="M191,27.5c-.1-.1,0-.2,0-.4h.2C191.3,27.4,191.1,27.4,191,27.5Z" fill="#c02026" fill-rule="evenodd"/><path d="M187.9,25.6h-.1c0-.1-.1-.2-.1-.3S187.8,25.6,187.9,25.6Z" fill="#c02026" fill-rule="evenodd"/><path d="M186.6,24.5h-.1C186.4,24.5,186.5,24.4,186.6,24.5Z" fill="#c02026" fill-rule="evenodd"/><path d="M184.7,23.1l.3.6-.5.6h0c0-.1.1-.2,0-.3S184.9,23.6,184.7,23.1Z" fill="#c02026" fill-rule="evenodd"/><path d="M185.3,23.8h.1V24h0C185.2,23.8,185.3,23.9,185.3,23.8Z" fill="#c02026" fill-rule="evenodd"/><path d="M190.4,29.3h0Z" fill="#c02026" fill-rule="evenodd"/><path d="M185.5,25c.1.2-.2.3-.3.2h.1C185.4,25.2,185.5,25.1,185.5,25Z" fill="#c02026" fill-rule="evenodd"/><path d="M186.1,25.6c.2.1.1.3,0,.4S186,25.7,186.1,25.6Z" fill="#c02026" fill-rule="evenodd"/><path d="M172.6,14.1c.1.1.2.1.1.3l-.2-.2Z" fill="#c02026" fill-rule="evenodd"/><path d="M165.6,8.3c.2.1.3.2.2.4s-.2-.2-.2-.4Z" fill="#c02026" fill-rule="evenodd"/><path d="M185.3,26c0,.1,0,.1-.1.3s.1-.1,0-.2S185.2,26,185.3,26Z" fill="#c02026" fill-rule="evenodd"/><path d="M186.9,29.7h0C187,29.5,187.1,29.6,186.9,29.7Z" fill="#c02026" fill-rule="evenodd"/><path d="M164.4,10.3h.1a.2.2,0,0,1-.1-.3Z" fill="#c02026" fill-rule="evenodd"/><path d="M175.6,20.9h-.2c.1,0,0,0,.1-.1s-.2-.2-.3-.1-.1-.1-.1-.2S175.6,20.7,175.6,20.9Z" fill="#c02026" fill-rule="evenodd"/><path d="M163.3,10.8l.3.4h-.1c-.1.1-.1,0-.2-.1S163.1,11,163.3,10.8Z" fill="#c02026" fill-rule="evenodd"/><path d="M162.4,10.1c.1,0,0,.2-.1.3S162.4,10.2,162.4,10.1Z" fill="#c02026" fill-rule="evenodd"/><path d="M171.2,18l-.2.2c0-.1.2-.2,0-.3Z" fill="#c02026" fill-rule="evenodd"/><path d="M163.6,11.7c.2-.1.2.1.3.1S163.7,11.7,163.6,11.7Z" fill="#c02026" fill-rule="evenodd"/><path d="M166,14.5c.1.1.1.2.1.4S165.8,14.6,166,14.5Z" fill="#c02026" fill-rule="evenodd"/><path d="M173.1,21.7h.1c.1,0,.1.2,0,.3h0C173.1,21.8,173.3,21.8,173.1,21.7Z" fill="#c02026" fill-rule="evenodd"/><path d="M185.2,33.2h-.1c0-.1,0-.1-.1-.2S185.3,33.1,185.2,33.2Z" fill="#c02026" fill-rule="evenodd"/><path d="M187,34.9c-.1.1-.2.1-.3-.1h0C186.9,34.6,187,34.8,187,34.9Z" fill="#c02026" fill-rule="evenodd"/><path d="M169.6,19.5c0,.1.1.2,0,.3l-.2-.2S169.4,19.5,169.6,19.5Z" fill="#c02026" fill-rule="evenodd"/><path d="M161.6,14.6c0,.2-.1,0-.2-.1S161.6,14.5,161.6,14.6Z" fill="#c02026" fill-rule="evenodd"/><path d="M185.2,35.4a.1.1,0,0,1,0,.2s0-.1-.1,0h0C185.2,35.4,185.2,35.5,185.2,35.4Z" fill="#c02026" fill-rule="evenodd"/><path d="M179.5,31.4c-.2.2-.3,0-.3-.1S179.4,31.3,179.5,31.4Z" fill="#c02026" fill-rule="evenodd"/><path d="M160,16.4c-.2,0-.4-.3-.7-.5s-.2-.5.2-.8v.2C160,15.4,160.4,16,160,16.4Z" fill="#c02026" fill-rule="evenodd"/><path d="M180.7,35.5c.1-.1,0,.3-.1.1S180.7,35.6,180.7,35.5Z" fill="#c02026" fill-rule="evenodd"/><path d="M179.5,34.9a.1.1,0,0,1-.1.1h0c-.1,0,0,0,0-.2h-.1c0-.1.2,0,0-.1s.1,0,.1-.1S179.4,35,179.5,34.9Z" fill="#c02026" fill-rule="evenodd"/><path d="M175.1,31.4a.3.3,0,0,1,.1.2C175.1,31.7,175.1,31.4,175.1,31.4Z" fill="#c02026" fill-rule="evenodd"/><path d="M177.4,34.1a.4.4,0,0,1-.2.4c-.2.1-.4-.2-.3-.4S177.2,34,177.4,34.1Z" fill="#c02026" fill-rule="evenodd"/><path d="M174.4,32.9h0c0,.1,0,0-.1,0s.2.1.1.2l-.2-.2Z" fill="#c02026" fill-rule="evenodd"/><path d="M188.7,46c.1.1-.1,0,0,.1h-.2C188.5,45.9,188.6,46,188.7,46Z" fill="#c02026" fill-rule="evenodd"/><path d="M175.7,36.9c-.3-.1-.6-.5-.2-.7A.4.4,0,0,1,175.7,36.9Z" fill="#c02026" fill-rule="evenodd"/><path d="M173.8,36.2h.1c-.1.2-.4-.1-.2-.3l.2.3Z" fill="#c02026" fill-rule="evenodd"/><path d="M178,40.8c-.1-.1,0,0-.1.1s.1.2,0,.3,0-.4-.3-.6h.1c0-.1-.1,0-.1-.1a.1.1,0,0,0-.1-.1C177.8,40.4,177.9,40.6,178,40.8Z" fill="#c02026" fill-rule="evenodd"/><path d="M172.8,36.8h0C172.7,36.9,172.8,36.8,172.8,36.8Z" fill="#c02026" fill-rule="evenodd"/><path d="M174.1,39c-.2.2-.1.4-.4.5s-.6-.5-.7-.9A.6.6,0,0,1,174.1,39Z" fill="#c02026" fill-rule="evenodd"/><path d="M171,36.3a.3.3,0,0,1,.1.2.3.3,0,0,1-.2-.4v.2Z" fill="#c02026" fill-rule="evenodd"/><path d="M173.5,40c-.2,0-.2-.3-.1-.4S173.6,39.9,173.5,40Z" fill="#c02026" fill-rule="evenodd"/><path d="M154.2,22.7c.1.2-.1.2-.2.2Z" fill="#c02026" fill-rule="evenodd"/><path d="M158.7,28.7c0,.2-.2.1-.4.1h.1C158.4,28.6,158.6,28.8,158.7,28.7Z" fill="#c02026" fill-rule="evenodd"/><path d="M178.2,46.6c.1.1.1,0,.2-.1h-.2c0-.4.7.1.4.4S178.2,46.7,178.2,46.6Zm.2.2c.1-.1.1-.1.1-.2s-.1-.1-.1,0S178.3,46.6,178.4,46.8Z" fill="#c02026" fill-rule="evenodd"/><path d="M176.7,55.8h.2s-.1.1,0,.1-.1,0-.1-.1A.1.1,0,0,0,176.7,55.8Z" fill="#c02026" fill-rule="evenodd"/><path d="M164.2,50.6h-.1C164,50.7,164.1,50.6,164.2,50.6Z" fill="#c02026" fill-rule="evenodd"/><path d="M187.6,14.1c.2.1-.1.2-.2.4a.3.3,0,0,1-.3-.3c.3.1.4-.4.6-.2h.1C187.9,13.8,187.7,14.2,187.6,14.1Z" fill="#c02026" fill-rule="evenodd"/><path d="M188.6,15.9h0c-.1.1,0,.1,0,.1s-.3.1-.1.2-.1-.1-.2-.1,0,.2-.1.3-.2-.1-.2-.2l.4-.2c0,.2,0-.1.1,0h.1Z" fill="#c02026" fill-rule="evenodd"/><path d="M174.8,4.5c0,.1.1.2,0,.2s.1-.1-.1-.2Z" fill="#c02026" fill-rule="evenodd"/><path d="M190.2,18.4h-.1v-.2c.1.1,0,.3-.1.4S190.1,18.5,190.2,18.4Z" fill="#c02026" fill-rule="evenodd"/><path d="M187.7,17.3a1.1,1.1,0,0,1-.9.3C187,17.4,187.4,17,187.7,17.3Z" fill="#c02026" fill-rule="evenodd"/><path d="M192,21.2h-.2c.1,0,0-.1-.1,0S191.9,21.1,192,21.2Z" fill="#c02026" fill-rule="evenodd"/><path d="M184.7,14.7c-.3.6-.9,1.2-1.3,1.2s.5-.8.7-.8S184.5,14.5,184.7,14.7Z" fill="#c02026" fill-rule="evenodd"/><path d="M185.1,16c-.1.1,0,.1-.1.3s0-.2-.1-.2Z" fill="#c02026" fill-rule="evenodd"/><path d="M169.1,2.4H169a.1.1,0,0,1-.1-.1c.1,0,.2,0,.1-.1a.2.2,0,0,1,.1.3h0Z" fill="#c02026" fill-rule="evenodd"/><path d="M187.9,20.7h0S188,20.7,187.9,20.7Z" fill="#c02026" fill-rule="evenodd"/><path d="M178.7,12.6c.1.2-.2.5-.3.7s-.3.6-.4.8h-.1c.2-.1,0,.3-.1.3A6.6,6.6,0,0,1,178.7,12.6Z" fill="#c02026" fill-rule="evenodd"/><path d="M189.2,22.3H189c.3-.1.2.4,0,.4h.2Z" fill="#c02026" fill-rule="evenodd"/><path d="M180.9,16.4h.1c.1-.1.1.1.1.1l-.2.2S181.2,16.5,180.9,16.4Z" fill="#c02026" fill-rule="evenodd"/><path d="M183.1,18.3h0c-.1.2-.2,0-.3,0s.1,0,.1-.1.2,0,.2.1Z" fill="#c02026" fill-rule="evenodd"/><path d="M177.8,13.8h-.1c0,.2,0,.2-.1.3h-.1c0,.1.3-.5.3-.1S177.7,13.8,177.8,13.8Z" fill="#c02026" fill-rule="evenodd"/><path d="M182.6,18.3c.1,0-.1.2.1.2s-.4.1-.6,0,.1,0,.1-.1a.1.1,0,0,1,.1.1c0-.1.2-.3.2-.1S182.5,18.4,182.6,18.3Z" fill="#c02026" fill-rule="evenodd"/><path d="M189.6,24.5c.2.2-.2.2,0,.2a.1.1,0,0,1-.1.1h0C189.4,24.7,189.6,24.7,189.6,24.5Z" fill="#c02026" fill-rule="evenodd"/><path d="M192.3,27.3c-.2.3-.7.1-1.1.2a.4.4,0,0,1,.5-.1Z" fill="#c02026" fill-rule="evenodd"/><path d="M186.8,22.6c.6.3.2,1.1-.4.6s0-.2-.1-.4Z" fill="#c02026" fill-rule="evenodd"/><path d="M177.6,14.8c0,.2.2.1.1.2s-.3.4-.1,0Z" fill="#c02026" fill-rule="evenodd"/><path d="M189.3,25.7c.1.1,0,.1,0,.1s.4.6.7.6h-.2c.2.1.2.3.3.2s0,.3.1.4a.7.7,0,0,0-.1.6c-.4.3-.3.5-.6.7s-.1.1,0,.2l-.9.2a2.3,2.3,0,0,1-1.4-.7c.1-.4-.5-.5-.7-.4s-.2-.2-.2-.3.2-.1.2-.3.4-.2.4-.3-.2-.1-.4-.2.1-.1,0-.1.1-.3.3-.4a.6.6,0,0,1,.5.2l.4-.3.6-.5c-.2.2.6.4.7.2S189.2,25.8,189.3,25.7Z" fill="#c02026" fill-rule="evenodd"/><path d="M177.5,15.5h-.1c0-.1.1,0,0,.1h.2c0,.1-.2.2-.1.3h0Z" fill="#c02026" fill-rule="evenodd"/><path d="M186.7,23.9c.1-.1,0-.2,0-.1s.1-.1.1,0-.3.2-.4.1-.1.1-.2.1a.1.1,0,0,1,0,.2c-.1-.2-.3,0-.4.1a1.5,1.5,0,0,1-1.1.2h.3c0-.2.3-.1.3-.3h.1c0,.2.4-.2.6,0s.3-.1.4-.3Z" fill="#c02026" fill-rule="evenodd"/><path d="M197.4,33.1c.2,0,0,.4.2.2s0,0,.1.1.3.3,0,.4h.1c-.1-.1-.1,0-.2,0a.1.1,0,0,0-.1-.1h.1c0,.1.1.1,0,.1h.2c-.1,0-.1-.2-.3-.1s0-.2,0-.2l-.2-.2Z" fill="#c02026" fill-rule="evenodd"/><path d="M170.5,10.2c.1,0,0-.2,0-.3s.5.6.3.8h-.2A.6.6,0,0,0,170.5,10.2Z" fill="#c02026" fill-rule="evenodd"/><path d="M187,25.4c-.1-.1,0-.1-.1-.2l.4-.3C187.4,25,187.2,25.3,187,25.4Z" fill="#c02026" fill-rule="evenodd"/><path d="M177.1,16.3c.1-.1.1.1.1,0s-.1.2-.1.3S177.3,16.4,177.1,16.3Z" fill="#c02026" fill-rule="evenodd"/><path d="M176,16.2c0,.1-.1-.1-.1-.1s.2-.2.2-.3h.1c0,.1-.1,0-.1.2S175.8,16,176,16.2Z" fill="#c02026" fill-rule="evenodd"/><path d="M177,26.5a.1.1,0,0,0-.1-.1c.1-.3.1-.7.3-.8a.7.7,0,0,0-.1-.6.2.2,0,0,1,0-.3c-.1,0-.1,0-.1-.2h-.1c0-.3.1-.6.1-.8s-.2-.1-.2-.2v-.4h-.2c.1.1,0,.1,0,.1h-.5a.4.4,0,0,1,.1-.3c-.1-.1-.1-.1-.1-.2h-.3c-.2.1-.3.4-.4.4s-.5,0-.6-.2-.7,0-.9-.4-.2.2-.3.1a.5.5,0,0,0-.3-.3.5.5,0,0,1-.9-.2c-.2.1-.2.3-.4.3l-.5-.3c-.3.1-.4-.2-.5-.4s-.3-.5-.5-.7h-.2a.7.7,0,0,0,.1.5h-.2c-.2,0-.2,0-.4-.2h-.1c-.3.5-.5,0-.9.1a.8.8,0,0,1,.1.4c-.4.2-.8-.2-1.1-.2s-.1-.2-.1-.3.1.1,0,.1h-.3c.1.1.2.1.2.2s0,.1,0,.1l-.4.5c.1.1.1.1,0,.2s-.3.3-.5.2,0-.2-.1-.2a.1.1,0,0,0,.1-.1c-.1.1-.1-.1-.2-.1s-.1.3-.3.5l-.4-.2h-.1c0,.1-.1.1,0,.1s0-.1.1,0a1.2,1.2,0,0,0-.2.9c-.3.4-.7.1-.9.1h-.1c0-.1-.1.1-.1-.1s-.1.2,0,.3h.1c.5.3-.1.6-.1,1s-.4,0-.6-.1.3.5.3.7l-.3.2c.1.3,0,.9-.5.7a4.3,4.3,0,0,0-.4-.7c-.1.2.2.4,0,.6s.6.6.8,1.1h0c.5.4-.2.8-.5.7s.1.2.3.3l.5.3a.7.7,0,0,0,.2.6c-.1.1,0,.1-.1.2l-.2.2c0-.1.1.1.1-.1s0,.1,0,.2.6.6.4.9.5.1.2.4-.1,0-.2-.2.1.1,0,.2-.1.1-.1.2.1-.1.1,0,.1,0,.1.1h1.3c0,.2.2.4,0,.6s0,.1.2.1h0a.9.9,0,0,1,1,.2c-.1.2.1.5-.1.6h.3c0-.2.3-.1.4-.2s.6,0,.9.3-.1.1-.1.2h.1c.1-.1,0-.2.1-.2s.1.1,0,.2h.1a.1.1,0,0,1-.1.1c.2-.1.1-.2.1-.3s1-.4,1.3-.2h0c.2.1.5.2.6.4s.1.1.2.2.2-.3.3-.2,0-.2.1-.2h.3c.1-.1.1-.1.1-.2s1.2-.6,1.9-.2.1-.1.2,0,0-.1.1-.2l.2.2c0-.2.2-.1.1-.2s.1-.3.3-.2.4.4.3.6-.2.4-.2.6.1-.2.3-.3.6-.6.1-.7,0,0,0,.1h-.2c.1-.1-.2-.3-.1-.4s.2-.3.4-.2-.1-.1,0-.2h.2c0,.1.1,0,.2.1s.1.2.1.3-.7,1-.2,1.3.5.1.8,0h-.1l.3-.3c-.2-.2-.3-.4-.1-.6s.2,0,.3-.2-1.1-.1-1.3-.8l.3-.3c-.1,0-.2,0-.2-.2s0,0,.1-.1.2.2.2.2h.1c.1.1.2.1.1,0h.1c-.1.1.1,0,.2,0s-.3-.2-.3-.3h-.1c-.2-.1-.1-.3-.1-.4s-.1-.1-.2-.2-.1-.1,0-.2a2,2,0,0,0,1.1.7c0-.1.2-.2.2-.4a2.9,2.9,0,0,0-.2-.9c.1-.2.3-.2.3-.3s.1-1,.3-1.3h.1l-.3-1Z" fill="#c02026"/><path d="M185.4,29.4a1.9,1.9,0,0,0-.2-1.2c.3-.3-.5-.8,0-1.2s-.3-.1-.4-.4l.5-.3c-.1-.2-.2-.2-.4-.1s-.1.4-.2.4,0-.2-.1-.2h0c-.2,0-.5-.3-.3-.4s-.2.1-.3.2-.2-.1-.3-.2-.4,0-.6,0-.5.2-.7,0-.1-.2,0-.3.2-.2.4-.2,0-.2.1-.3.2.2.3.1l-.3-.2.2-.2c-.2-.1,0-.2,0-.3s0-.4-.1-.4h0v-.2c-.3,0-.5-.3-.4-.5s-.2-.3-.4-.2a.1.1,0,0,1-.1.1c-.1-.1-.2-.3-.4-.3s0-.1.1-.2-.1,0-.1-.1-.3.1-.5-.1.4-.1.4-.3-.2,0-.3,0a.9.9,0,0,1-.1-.7c-.1,0-.2-.2-.2-.2s0,.5-.1.6-.3-.1-.5-.2h.1c-.1-.1,0-.3-.1-.2s-.1,0,0,.1h-.2a1.6,1.6,0,0,1-1-.5c0-.1.1,0,.1-.1s-.1-.1-.1-.2-.5,0-.7.1h.1l-.4.2c-.1-.2-.2-.2-.4-.3h0c-.2,0-.3-.4-.5-.4s0,.3,0,.5-.3.5-.5.6-.1.5-.3.5-.4-.2-.5-.1h.2c-.1.1.1.2,0,.3s-.2.4-.4.3.1.1.2.2l-.2.4a4.3,4.3,0,0,0-.1.5c.1,0,.1.2.1.3s-.1,0-.1,0v.6h-.1a.5.5,0,0,1,.3.4h-.1a1.2,1.2,0,0,1,.2.8l-.2.4h0c.1.1.1.1,0,.2h.2c-.1.1-.2.3,0,.3s0-.2.1-.2v.9l.2.2c-.1,0,0,.1-.1.3h.3c.2.1.1.1.2.2s.1-.1.2,0a1.4,1.4,0,0,1,.2.6h0a.4.4,0,0,0,.6.2.7.7,0,0,1,.6.3c.1-.1.2,0,.3,0s.2,0,.3,0,.1-.1.1-.1,0,.1.1,0,0-.1,0-.1H179c.1-.1,0-.1.2-.1s-.3-.4,0-.4h.3c.1-.1,0-.1.1-.2h.2c-.1-.1,0-.1,0-.1h0a.1.1,0,0,0,.1-.1c0,.1,0,.1.1.1s.4-.3.6-.4a.1.1,0,0,0,.1.1h0l.3.3c.2.2.2.6.4.7h0c.1.1.1.2.3.2s0,.2,0,.2h.1a7.3,7.3,0,0,0,1.3,1h1c0-.1.2,0,.2-.1s.1.2.1.1v-.2l.4-.2h.1c0-.1.1,0,.1,0s.2-.7.4-.9S185.6,29.6,185.4,29.4ZM181.5,26c0,.1,0,.2.1.2h-.2A.4.4,0,0,1,181.5,26Zm.1.8-.2-.2c.1-.1.1-.2.2-.2S181.6,26.6,181.6,26.8Zm.1-.9a.6.6,0,0,1,.6.1C182.2,26.5,181.7,26.1,181.7,25.9Z" fill="#c02026"/><path d="M182.2,26.5a.1.1,0,0,1,.1.1h.1C182.3,26.5,182.3,26.4,182.2,26.5Z" fill="#c02026" fill-rule="evenodd"/><path d="M181,21.2h0c-.2.1.1.1-.1.2h.1c-.1-.1-.1,0-.1-.1Z" fill="#c02026" fill-rule="evenodd"/><path d="M180.5,21.6h-.2c-.2-.1-.1-.2-.2-.3h.1C180.2,21.5,180.4,21.2,180.5,21.6Z" fill="#c02026" fill-rule="evenodd"/><path d="M198.2,37.8h.3C198.5,37.9,198.3,37.9,198.2,37.8Z" fill="#c02026" fill-rule="evenodd"/><path d="M176.7,18.6c-.3.4-.7.3-1,.4s.3-.3.4-.5,0-.5.2-.7S176.5,18.3,176.7,18.6Z" fill="#c02026" fill-rule="evenodd"/><path d="M178,20.1h0A.1.1,0,0,1,178,20.1Z" fill="#c02026" fill-rule="evenodd"/><path d="M178.3,20.4l-.2.3H178c-.1,0,0-.2-.1-.3Z" fill="#c02026" fill-rule="evenodd"/><path d="M178.1,20.7c.1,0,.1.2,0,.2s0,0,.1,0h-.1c-.1-.1,0-.1,0,0S178.1,20.7,178.1,20.7Z" fill="#c02026" fill-rule="evenodd"/><path d="M196.2,38.9c.1.3.2.6-.1.8S195.9,39.2,196.2,38.9Zm0,.4c-.1-.1,0-.2,0-.3h-.1C196.2,39.2,196.1,39.3,196.2,39.3Z" fill="#c02026" fill-rule="evenodd"/><path d="M171.7,18.4a2.1,2.1,0,0,1,0-.8A.6.6,0,0,1,171.7,18.4Z" fill="#c02026" fill-rule="evenodd"/><path d="M175.2,20.7h0c.1.1,0,.2.2.1h-.1c-.1,0,0,0,0,.1a.1.1,0,0,1,.1-.1v.2h-.3c0-.2.2-.1,0-.3S175.1,20.7,175.2,20.7Z" fill="#c02026" fill-rule="evenodd"/><path d="M194.9,38.4h0c-.1.2-.4-.1-.6-.2s.2.1.4.1.1,0,.1.1S194.8,38.3,194.9,38.4Z" fill="#c02026" fill-rule="evenodd"/><path d="M163.8,11.9c0,.1.2.1.1.3S163.7,11.9,163.8,11.9Z" fill="#c02026" fill-rule="evenodd"/><path d="M185.7,32.6h.4l.2.3c-.2.1-.4-.1-.5,0S185.8,32.7,185.7,32.6Z" fill="#c02026" fill-rule="evenodd"/><path d="M171.6,22.1c.1-.1.1,0,.1,0h0c-.2-.1,0,0-.1.1a.1.1,0,0,0-.1-.1C171.5,22.1,171.7,22.2,171.6,22.1Z" fill="#c02026" fill-rule="evenodd"/><path d="M191.6,39.9c.2.1,0,.3.1.5a.1.1,0,0,0-.1.1h0c-.1,0-.1-.2-.1-.2s.1,0,0-.1.1.1.1-.1h-.1c-.1-.1,0-.2,0-.4s.1.1.1.2S191.7,39.9,191.6,39.9Z" fill="#c02026" fill-rule="evenodd"/><path d="M167.3,18.6h.1c-.1.2,0,.4-.2.6S167.3,18.8,167.3,18.6Z" fill="#c02026" fill-rule="evenodd"/><path d="M169.1,20.4c.1,0,0-.1,0-.2s0,.2.1.1-.1.2.1.3h0C169.1,20.7,169.3,20.4,169.1,20.4Z" fill="#c02026" fill-rule="evenodd"/><path d="M169.5,21a.1.1,0,0,1,.1-.1c0,.1.1.2.1.3h-.1c-.2,0-.2.3-.3.4s.1-.1-.1-.1,0-.1.1-.2,0-.1-.1-.2h.1c0-.1.1,0,0,.1h.2Z" fill="#c02026" fill-rule="evenodd"/><path d="M167.3,19.4h-.1v-.2c0,.1,0,.4-.2.3Z" fill="#c02026" fill-rule="evenodd"/><path d="M167.3,19.7c-.1,0,0,.1-.1,0s0,.2-.1.2a.1.1,0,0,0,0-.2c.1,0,.1,0,0-.1h.2a.1.1,0,0,1,0,.2Z" fill="#c02026" fill-rule="evenodd"/><path d="M162.7,16.1c.1,0-.4-.3-.2-.5h0c.1,0,.3,0,.2.1h-.1c-.1.2.2.2.2.3s0-.2.1-.3.1.2.1.4h-.1v.2c.1,0,0-.1.1-.1a.4.4,0,0,1,.1.3c0-.2-.1-.1-.2-.1h.3a.2.2,0,0,1-.2.2c-.1-.1-.1-.3-.2-.4S162.8,16.2,162.7,16.1Z" fill="#c02026" fill-rule="evenodd"/><path d="M180.9,32.2l.7.2c-.4.1-.8-.2-1.1-.2h.4Z" fill="#c02026" fill-rule="evenodd"/><path d="M175.8,27.4c.1,0-.1.1-.1.2h-.2Z" fill="#c02026" fill-rule="evenodd"/><path d="M185.1,35.6s.1,0,0,.1.1-.1.2,0h-.1C185.1,35.7,185.1,35.7,185.1,35.6Z" fill="#c02026" fill-rule="evenodd"/><path d="M184.5,35.3a.3.3,0,0,0-.1.2c-.1.1,0-.1-.2-.2s.1.1.2,0h-.3c.1-.1,0-.1,0-.2S184.2,35.2,184.5,35.3Z" fill="#c02026" fill-rule="evenodd"/><path d="M175.9,28.3c-.2.2-.1-.1-.2-.1h.4c0,.1-.1.2-.3.2Z" fill="#c02026" fill-rule="evenodd"/><path d="M163,18.6c0,.1-.2.1-.1.3a.6.6,0,0,1-.1-.6c.1.1,0,0,.1-.1s-.3-.4-.5-.5a2,2,0,0,1,.8,1Z" fill="#c02026" fill-rule="evenodd"/><path d="M176.6,30.6c.1,0,.1-.1,0-.1h-.1a.1.1,0,0,1,.1-.1h.1c0,.2-.1,0-.2.1S176.6,30.5,176.6,30.6Z" fill="#c02026" fill-rule="evenodd"/><path d="M162.7,18.6a.3.3,0,0,0-.1.2c-.1,0,0-.2,0-.2s-.1.1-.1,0,0-.1,0-.1S162.5,18.6,162.7,18.6Z" fill="#c02026" fill-rule="evenodd"/><path d="M182.3,36.2c0,.1-.1.1.1.2s-.1.1-.2,0S182.2,36.2,182.3,36.2Z" fill="#c02026" fill-rule="evenodd"/><path d="M163.5,20.3c.1,0,0,.2.1.2s-.1,0,0,0h-.1C163.6,20.4,163.5,20.3,163.5,20.3Z" fill="#c02026" fill-rule="evenodd"/><path d="M178.2,34.2c-.2,0-.2.1-.1.2S178,34,178.2,34.2Z" fill="#c02026" fill-rule="evenodd"/><path d="M177.5,34.2h.1a.1.1,0,0,1,.1.1h-.1c0,.1,0,.1.1,0s-.2.1-.2,0h.1C177.7,34.2,177.6,34.2,177.5,34.2Z" fill="#c02026" fill-rule="evenodd"/><path d="M160.1,19.2h.2a.1.1,0,0,1-.1.1c-.1-.1-.3-.1-.2-.2Z" fill="#c02026" fill-rule="evenodd"/><path d="M174.9,32.4h0c.3-.2.5.2.5.3s-.1.3-.1.4h-.4c-.1-.1-.1-.2-.3-.3s-.1-.1,0-.2h-.1A.4.4,0,0,0,174.9,32.4Zm.2.4s.1.2.2,0h-.2C175.1,32.7,175,32.8,175.1,32.8Zm0,.3c0-.1-.2-.1-.2-.1s.1,0,.2.1.1-.1.1-.2Z" fill="#c02026" fill-rule="evenodd"/><path d="M157.4,17.9c0-.2.4-.2.2-.3s.1.2.2.2Z" fill="#c02026" fill-rule="evenodd"/><path d="M176.7,34.6h0c-.1,0,0-.1,0-.1h-.1c-.2-.2-.2-.2.1-.1s0,.2.1.2-.1.1-.1,0Z" fill="#c02026" fill-rule="evenodd"/><path d="M186.9,44.5h-.2c0-.2.1.1.1-.2h.2c0-.1-.1,0-.1-.1s.1,0,.1.1,0-.2,0-.3-.3-.1-.4,0a.3.3,0,0,0,.1.2c-.1.1-.1,0-.1-.1a.1.1,0,0,0,0,.2c-.2,0,0-.2,0-.3l.3-.2c0,.1,0,.2.1.1a.9.9,0,0,1,.1.5Z" fill="#c02026" fill-rule="evenodd"/><path d="M181.2,41c-.1.1-.1.2-.2.2a1,1,0,0,1-.7-.4c0-.1.1-.2,0-.2S180.8,40.7,181.2,41Zm-.2.1c-.1-.2-.3-.1-.3-.3S180.9,41.1,181,41.1Z" fill="#c02026" fill-rule="evenodd"/><path d="M158.1,22.1c0-.1.1,0,.2,0h-.2C158.1,22.1,158.2,22.1,158.1,22.1Z" fill="#c02026" fill-rule="evenodd"/><path d="M176.7,39.7c.2.1.3.1.3.3v.2C176.7,39.9,176.6,39.9,176.7,39.7Z" fill="#c02026" fill-rule="evenodd"/><path d="M171.5,36.1c.1,0,0,.1.1,0s-.1.2,0,.3-.1,0-.1.1S171.5,36.2,171.5,36.1Z" fill="#c02026" fill-rule="evenodd"/><path d="M170.1,36.2c.1.1,0,.3,0,.4H170c0,.3-.2.5-.2.7h-.1c0-.2.2-.2,0-.3s0-.3.2-.3S170,36.3,170.1,36.2Z" fill="#c02026" fill-rule="evenodd"/><path d="M170.3,38.5c-.1.1.2.1,0,.2s-.1-.2-.1-.1,0-.2.1-.1Z" fill="#c02026" fill-rule="evenodd"/><path d="M170.3,39c-.1,0,0-.2-.1-.2s0-.1.1-.1Z" fill="#c02026" fill-rule="evenodd"/><path d="M170.5,39.2c0-.1-.1-.2-.2-.4h.1C170.4,38.9,170.5,38.9,170.5,39.2Z" fill="#c02026" fill-rule="evenodd"/><path d="M171.7,42.4c0-.1-.1-.3,0-.2s-.1-.1,0-.1,0,.1.1.2Z" fill="#c02026" fill-rule="evenodd"/><path d="M163.9,36.4h0c-.1.1-.1.1,0,.1v.3c-.2,0-.3-.2-.2-.4Z" fill="#c02026" fill-rule="evenodd"/><path d="M163.7,37c.1,0,.1.2.1.2h-.1S163.8,37.1,163.7,37Z" fill="#c02026" fill-rule="evenodd"/><path d="M163.7,37.2a1.9,1.9,0,0,1-.6.7h0a1.5,1.5,0,0,1,.4-.6Z" fill="#c02026" fill-rule="evenodd"/><path d="M162.7,36.8c0-.1.1.1,0,.2s-.2-.1-.1-.2a.1.1,0,0,0,.1.1S162.8,36.9,162.7,36.8Z" fill="#c02026" fill-rule="evenodd"/><path d="M172.4,45.6a.1.1,0,0,0-.1.1c.2.1.2.2.3.3s-.3.4-.4.5-.1-.1-.3.1-.5-.2-.7-.5h.1c0-.3-.1-.5.2-.7h.2c0-.1,0-.1.1-.3A1.5,1.5,0,0,1,172.4,45.6Z" fill="#c02026" fill-rule="evenodd"/><path d="M168,48.3c-.1,0-.2.2-.2.1s.1-.1.1-.2-.2.8-.3,1,.1-.4,0-.6,0,.1.1.2S167.8,48.5,168,48.3Z" fill="#c02026" fill-rule="evenodd"/><path d="M176.8,56a.1.1,0,0,0,0,.2s.1-.1,0-.1.1.1,0,.1S176.7,56.1,176.8,56Z" fill="#c02026" fill-rule="evenodd"/><path d="M177.3,60H177v.2C176.8,60.3,177.1,59.8,177.3,60Z" fill="#c02026" fill-rule="evenodd"/><path d="M177.2,60.4h.2a.1.1,0,0,1-.1-.1h.1c.1.1,0,.2-.1.3s-.2,0-.2-.1S177.1,60.4,177.2,60.4Z" fill="#c02026" fill-rule="evenodd"/><path d="M171.5,58c-.1,0,0,.1-.2,0s.1,0,.2,0l.2.2c-.1.1-.1-.2-.1,0S171.5,58.1,171.5,58Z" fill="#c02026" fill-rule="evenodd"/><path d="M166.1,54.1h-.2s.1,0,0,.1h.2Z" fill="#c02026" fill-rule="evenodd"/><path d="M138.1,47.7c-.1.1-.5.6-.7.6a.7.7,0,0,1,0,1,.4.4,0,0,1,.3.5h0l.5.2h0l.3.2.5.3c.4-.2.9.1,1.2-.1a.1.1,0,0,1-.1-.1l.8-.4c0,.1,0-.3.2-.2s0-.3-.1-.3h0c0-.1.1-.2.1-.3s.2,0,.2-.1h.1c-.2,0-.1-.2,0-.2s-.1-.3-.2-.3-.1-.2.1-.2-.1,0-.2,0,0-.8-.3-.8-.5-.3-.7-.5a.1.1,0,0,0,.1-.1c-.1.1-.1,0-.1,0s-.4.1-.6-.1-.3,0-.5,0-.3.2-.2.3-.3,0-.2.1h-.7A1.5,1.5,0,0,1,138.1,47.7Z" fill="#c02026" fill-rule="evenodd"/><path d="M136.3,47.5h0c0,.1.2.2.2.2a.2.2,0,0,1-.2-.2h0Z" fill="#c02026" fill-rule="evenodd"/><path d="M136.7,48.1h0c-.1.1-.1,0,0-.1s.1.2.1.3h-.1Z" fill="#c02026" fill-rule="evenodd"/><path d="M188.8,11.8l-.4.4C188,12.1,188.5,11.5,188.8,11.8Z" fill="#c02026" fill-rule="evenodd"/><path d="M187.4,10.9c.2-.2.2-.7.5-.6s-.2-.1,0-.3v.2c0-.1-.1-.2.1-.1h.1a10.4,10.4,0,0,1-1.2,1.7h-.2c0-.3,0-.7.3-.7h.3Zm.2-.2.2-.3Z" fill="#c02026" fill-rule="evenodd"/><path d="M185.2,11.2h-.1c0-.2.1-.2.2-.3s0,.1-.1.1h.1c.1.2-.2.3-.1.4s-.2.3-.3.1S185,11.1,185.2,11.2Z" fill="#c02026" fill-rule="evenodd"/><path d="M189.4,15.2c.2.2,0,.3-.1.2S189.3,15.3,189.4,15.2Z" fill="#c02026" fill-rule="evenodd"/><path d="M170.3,1c-.3-.2-.3-.7-.3-1S170.6.6,170.3,1Z" fill="#c02026" fill-rule="evenodd"/><path d="M187.6,16.7h.1c-.2.1-.4.3-.5.2s-.2.3-.4.4.4-.4.6-.7.1.1.1.2,0-.1-.1-.2h.1c.1-.1.1-.1.2,0s.1-.1.2-.3h.2l-.3.3Z" fill="#c02026" fill-rule="evenodd"/><path d="M190.1,18.6c.1.1-.1.2-.2.3a.8.8,0,0,1,.2-.5Z" fill="#c02026" fill-rule="evenodd"/><path d="M174.4,4.8c.3.4.4,1.2-.1,1.3A.9.9,0,0,1,174.4,4.8Z" fill="#c02026" fill-rule="evenodd"/><path d="M170.5,2.3c.2.2.1.3.2.4s-.3-.2-.4-.3S170.5,2.5,170.5,2.3Z" fill="#c02026" fill-rule="evenodd"/><path d="M183.2,16.7a.4.4,0,0,1-.2.5C182.9,17,183.1,16.8,183.2,16.7Z" fill="#c02026" fill-rule="evenodd"/><path d="M201.3,33.1a.7.7,0,0,1,.1.5C201.1,33.7,201,33.3,201.3,33.1Z" fill="#c02026" fill-rule="evenodd"/><path d="M178.5,14.3a1.7,1.7,0,0,1,.1.7C178.5,14.8,178.3,14.6,178.5,14.3Z" fill="#c02026" fill-rule="evenodd"/><path d="M185.3,21.5c-.1-.4.5-.8.7-.5S185.7,21.8,185.3,21.5Z" fill="#c02026" fill-rule="evenodd"/><path d="M183.6,20.4c-.1.1-.2.1-.2.2s-.8.1-1.2.2.2-.3.3-.5-.1.1.1.1S183.4,20,183.6,20.4Z" fill="#c02026" fill-rule="evenodd"/><path d="M181.5,20.7c-.4.4-.9-.4-.7-.7S181.5,20.4,181.5,20.7Z" fill="#c02026" fill-rule="evenodd"/><path d="M185.5,25.3a.1.1,0,1,1-.2.1h.2Z" fill="#c02026" fill-rule="evenodd"/><path d="M184.9,25.1c0,.2-.2.5-.4.4s0-.1.1-.2h.1c.1,0,0-.1,0-.1Z" fill="#c02026" fill-rule="evenodd"/><path d="M174.3,19c-.2-.1,0-.3,0-.4s-.2.1-.3,0,.2-.2.1-.3l.2-.2c.1-.2-.1-.4-.1-.5s.3-.8.7-1.1.6-.4.9-.2-.5.7-.6,1.2h0c-.1.2-.4.5-.6.5A3.8,3.8,0,0,0,174.3,19Z" fill="#c02026" fill-rule="evenodd"/><path d="M167.3,12.2c-.3-.1-.3-.3-.4-.5h.1a1.5,1.5,0,0,1-.2-.8A2.4,2.4,0,0,1,167.3,12.2Z" fill="#c02026" fill-rule="evenodd"/><path d="M187.2,30.2c-.1.1-.2.2-.3.1S187,30.1,187.2,30.2Z" fill="#c02026" fill-rule="evenodd"/><path d="M171.1,16.2c.1,0,0,.4-.2.3s0-.1,0-.2Z" fill="#c02026" fill-rule="evenodd"/><path d="M192.3,37.8c-.1,0,0,0-.1.1s-.2-.2-.4-.1a.2.2,0,0,0-.3-.1c0-.2-.2-.1-.1-.3s-.3-.3-.5-.5,0-.6.1-.7.1,0,.2,0l.3-.5c.2.2.2.1.4.2s.2-.2.2-.3a1.8,1.8,0,0,0,.9.4c.3.4.1.8.2,1.2s-.5.5-.9.7Z" fill="#c02026" fill-rule="evenodd"/><path d="M169.3,18.6h-.2c-.8-.4-.6-1-.7-1.5s.1-1.2.7-1.5.2.5.3.7.2.3.2.5-.2.3-.2.5S169.4,18.2,169.3,18.6Z" fill="#c02026" fill-rule="evenodd"/><path d="M168.1,16.8c-.3.1-.6-.4-.9-.4s-.2-.3-.2-.5v-.2c.1-.3-.1-.6.3-.7S168.8,16.1,168.1,16.8Z" fill="#c02026" fill-rule="evenodd"/><path d="M173.5,21.6c-.3,0-.4-.4-.4-.6s.2,0,.1-.1S173.5,21.4,173.5,21.6Z" fill="#c02026" fill-rule="evenodd"/><path d="M185.9,33.6c.1-.2.2-.1.4,0h-.2C186.1,33.6,186,33.7,185.9,33.6Z" fill="#c02026" fill-rule="evenodd"/><path d="M183.2,32.3c.1.1,0,.2-.1.3l-.5-.2C182.7,32.1,183,32.4,183.2,32.3Z" fill="#c02026" fill-rule="evenodd"/><path d="M168.5,20.1a.7.7,0,0,1-.4-.5C168.2,19.6,168.6,19.9,168.5,20.1Z" fill="#c02026" fill-rule="evenodd"/><path d="M178.7,31.5l.7.4v.2c-.2,0-.3-.3-.5-.1s-.4-.2-.5-.4S178.6,31.7,178.7,31.5Z" fill="#c02026" fill-rule="evenodd"/><path d="M177.7,31.2l.2.2c0,.2-.1.3-.3.2v-.4C177.7,31.3,177.7,31.2,177.7,31.2Z" fill="#c02026" fill-rule="evenodd"/><path d="M176.4,31.5c.1-.2,0-.1,0-.2s.2.2.2.1.1,0,0-.1a.9.9,0,0,1,.5.3c-.3.2-.6.1-.8.2s-.2-.3,0-.5S176.3,31.4,176.4,31.5Z" fill="#c02026" fill-rule="evenodd"/><path d="M175.4,31h.1c0,.1-.2.3-.3.1S175.2,31,175.4,31Z" fill="#c02026" fill-rule="evenodd"/><path d="M175.5,33c.4-.3.6.4.7.4A.9.9,0,0,1,175.5,33Z" fill="#c02026" fill-rule="evenodd"/><path d="M178.3,35.3c-.2.1-.4-.2-.4-.3S178.3,35.1,178.3,35.3Zm-.4-.3c0,.2.2.1.2.2S178,35,177.9,35Z" fill="#c02026" fill-rule="evenodd"/><path d="M181,38c.2.2.7.3.8.6s-.5-.1-.6-.2-.7-.9-1.1-1.1h.3c.1,0,.1-.1.2-.2S181,37.7,181,38Z" fill="#c02026" fill-rule="evenodd"/><path d="M188.4,45.9c.1-.1.1-.1.2,0a.1.1,0,0,0-.1-.1v-.2c.2.2.2.2.2.3Z" fill="#c02026" fill-rule="evenodd"/><path d="M175.6,35c-.1,0-.5-.3-.4-.6s.6.6.5.9l-.2-.3Z" fill="#c02026" fill-rule="evenodd"/><path d="M156.2,20.3c-.2-.1-.5-.2-.2-.3S156.3,20.1,156.2,20.3Z" fill="#c02026" fill-rule="evenodd"/><path d="M170,37.8c.2.1.1.2.1.3S169.9,38,170,37.8Z" fill="#c02026" fill-rule="evenodd"/><path d="M171.4,39.9h-.1c0-.1-.1-.1-.1-.2Z" fill="#c02026" fill-rule="evenodd"/><path d="M156.2,32.2s.2.1.1.2-.2.2-.3.2S155.9,32.2,156.2,32.2Z" fill="#c02026" fill-rule="evenodd"/><path d="M164.2,40.5c0-.1,0-.3.2-.2s.2-.6.4-.8A1.7,1.7,0,0,1,164.2,40.5Z" fill="#c02026" fill-rule="evenodd"/><path d="M171.6,32.4c-1.4,1.3-1,5.2-1,7.1,0,4.9.7,10,.3,14.9-.1.6.1,1.8-.6,2.1s-.8-2.6-.8-3.2c0-2.3-.2-4.7-.2-7s-.2-5.4-.3-8.1-.1-4.9-2.1-6-2.6-4,.7-3.5" fill="#c02026" fill-rule="evenodd"/><rect x="218.8" y="71.6" width="8.4" height="28.95"/><rect x="218.8" y="60.8" width="8.4" height="7.01"/><path d="M233.5,69.9h3.6a7.3,7.3,0,0,1-.7,3,4.7,4.7,0,0,1-2.7,1.9h-.2v4.2h.3a9.1,9.1,0,0,0,3.3-1,10.9,10.9,0,0,0,2.6-2.1,9.2,9.2,0,0,0,1.7-2.9,12.9,12.9,0,0,0,.5-3.5V60.8h-8.4Z"/><path d="M287,76.5a9.6,9.6,0,0,0-2.2-3.3,10.1,10.1,0,0,0-3.4-1.8,19.5,19.5,0,0,0-4.3-.5,10.2,10.2,0,0,0-5.3,1.4,15.4,15.4,0,0,0-3.2,3,7.3,7.3,0,0,0-3.3-3.4,11.8,11.8,0,0,0-5-1,10.7,10.7,0,0,0-5.1,1.2,11.7,11.7,0,0,0-3.4,2.9V71.6h-7.9v29h8.4V83.8a9.3,9.3,0,0,1,.5-3.2,7.2,7.2,0,0,1,1.4-1.9,6.5,6.5,0,0,1,1.6-.9l1.4-.2a4.9,4.9,0,0,1,2.7.6,2.9,2.9,0,0,1,1.2,1.5,5.4,5.4,0,0,1,.5,2.2v18.7H270V84.5a22.8,22.8,0,0,1,.2-2.6,8.1,8.1,0,0,1,.7-2.2,5.4,5.4,0,0,1,1.5-1.5,4.9,4.9,0,0,1,2.5-.6,5.5,5.5,0,0,1,2.5.5,3.5,3.5,0,0,1,1.3,1.4,6.5,6.5,0,0,1,.6,2.1,21.7,21.7,0,0,1,.1,2.6v16.4h8.4V81.3A13.8,13.8,0,0,0,287,76.5Z"/><path d="M304.4,73.4h-.1a.8.8,0,0,0-.2-.5c-.2-.5-.5-.9-.7-1.3l-.3-.5c-1.2-2.3-3.9-6.9-4.1-7.1a1.7,1.7,0,0,0-3,0A37.1,37.1,0,0,0,291.5,75a1.9,1.9,0,0,0,1.5,2.1h.3a1.8,1.8,0,0,0,1.8-1.5,31,31,0,0,1,2.5-7.1c.8,1.4,1.8,3.1,2.3,4.2a2.1,2.1,0,0,1,.4.6,11.9,11.9,0,0,1,.8,1.6,1.7,1.7,0,0,0,2.1,1.2,1.8,1.8,0,0,0,1.4-2A2.5,2.5,0,0,1,304.4,73.4Z" fill="#c02026"/><path d="M287.6,58.4a66.9,66.9,0,0,1-1.1-8.4c-.3-2.8-.6-5.7-.8-8.6h-.1a1.3,1.3,0,0,0-1-.7h-1.5a1.2,1.2,0,0,0-1.2,1.5c.3,4.4.5,8,.8,10.7a41,41,0,0,1-2.5-4c-1.6-2.7-2.8-4.6-3.7-5.8h-.2a3.8,3.8,0,0,0-2.2-.6c-1.5.4-1.5,1.3-1.5,1.6s.4,3.4,1,8.6c.4,3.3.8,6.2,1.2,8.4l.9,3.7c.1.3.1.7.2,1h0c.3.8.8,1.1,1.2,1.1l.5.2h.9a1.2,1.2,0,0,0,.8-.6,1.8,1.8,0,0,0,.5-1.9c-.4-1.6-.8-3.2-1.1-4.8s-.9-5.4-1.2-7.9c2.7,4.4,4.9,7.7,6.5,9.9a2.5,2.5,0,0,0,2.5,1.2,2,2,0,0,0,1.2-.8,1.4,1.4,0,0,0,.3-1.5C287.9,59.8,287.7,59.1,287.6,58.4Z" fill="#c02026"/><path d="M294.7,58.1a1.7,1.7,0,0,0,1-.3c2.3-1,3.9-3.1,4.6-6.4a5.4,5.4,0,0,0,0-1.8,8.7,8.7,0,0,0-1.9-3.7,4.8,4.8,0,0,0-2.9-1.5l-2.3-.4a1.9,1.9,0,0,0-1.4-.3,3.2,3.2,0,0,0-2.1,1.6,6.6,6.6,0,0,0-1.1,2.4,11.9,11.9,0,0,0-.5,5.5,5.6,5.6,0,0,0,2.2,3.6,6.6,6.6,0,0,0,3.7,1.4Zm-2-4.2a5.1,5.1,0,0,1-.9-1.8,3.3,3.3,0,0,1,.3-2.5.1.1,0,0,0,.1.1,1.2,1.2,0,0,0,1.2,0,2.6,2.6,0,0,0,1.1-1.2,1.1,1.1,0,0,1,.4-.5h0c.5.1.9.8,1.3,2h0a4.2,4.2,0,0,1-.4,2.8c-.6,1.1-1.2,1.8-1.9,1.9S293.6,54.7,292.7,53.9Z" fill="#c02026"/><path d="M315,35.1a1.1,1.1,0,0,0-1.2-.9.3.3,0,0,0-.1-.2.9.9,0,0,0-.9-.2l-2.1.6-1.7.8h-.1a9.2,9.2,0,0,1-2.5.9,9.1,9.1,0,0,1-2.3.1h-.3l-.2.2a11.7,11.7,0,0,1-3.7,1.7,20.5,20.5,0,0,0-4.1,1.5h-.2a1,1,0,0,0-.2.9c0,.2,0,.2.6,1.1h.2a5.4,5.4,0,0,0,3.1.4l2.4-.8,1.7-.5q.3,2.3.9,6c.4,3,.7,5.2,1,6.6a18.4,18.4,0,0,0,.5,2.5,3.6,3.6,0,0,0,1.2,1.8,2.3,2.3,0,0,0,1.7.7h.4a1.3,1.3,0,0,0,1.1-1.2,4.5,4.5,0,0,0-.1-1.1c-.3-1.3-.6-2.6-.8-3.9-.7-3.3-1.3-7.5-1.9-12.6,3-1.1,5.2-1.9,6.4-2.5a2.2,2.2,0,0,0,1.2-2.1h0Z" fill="#c02026"/><path d="M319.3,61.3v39.4h-8.4V61.3Z"/><path d="M353.4,86.1c0,7.4-4.1,15.4-15.2,15.4-8.1,0-15.4-4.6-15.4-15.4,0-8.9,5.5-16,16.4-15.4S353.4,80.8,353.4,86.1Zm-20.7-5.7a11,11,0,0,0-1.4,5.7c0,4.6,2.2,8.6,6.9,8.6s6.7-3.7,6.7-8.2-.7-5.8-2.3-7.3a6.1,6.1,0,0,0-4.9-1.7A5.8,5.8,0,0,0,332.7,80.4Z"/><path d="M367.2,92.8,372,71.6h8.6l-9.2,29.1h-8.8l-9.2-29.1h8.8Z"/><path d="M404.4,74.2a8.5,8.5,0,0,1,2.9-2.2,12.4,12.4,0,0,1,5.1-1.1,11.3,11.3,0,0,1,5.1,1.2c3,1.6,3.8,4.2,3.8,8.7v19.9H413V84.3c0-2.6-.1-3.6-.4-4.3a3.9,3.9,0,0,0-3.8-2.3c-4.4,0-4.4,3.7-4.4,7.3v15.7H396V71.6h8.4Z"/><path d="M384.2,61.3h8.2v6.6h-8.2Zm0,10.3h8.2v29.1h-8.2Z"/><path d="M445.3,61.3h8.3v6.6h-8.3Zm0,10.3h8.3v29.1h-8.3Z"/><path d="M461.2,64.9h8.4v6.7h5.5v6.7h-5.6V90.6c0,1.8,0,3.3,2.2,3.3h3v6.7a23.9,23.9,0,0,1-4.4.4c-2.9,0-6-.1-7.9-2.8s-1.2-3.8-1.2-6.6V78.2h-4.1V71.6h4.1Z"/><path d="M433.4,69.7V61.3h-8.6v8.4h3.6c0,3-1.6,5.5-3.6,5.5v4C429.6,79.2,433.4,75,433.4,69.7Z"/></svg>