<svg xmlns="http://www.w3.org/2000/svg" viewBox="0 0 263 251"><title>INLI-stacked-logo</title><path d="M159.5,43.4h0a267.7,267.7,0,0,0-6.1,28.5c-4,24.9-6.4,56.2-6.4,90.2H122.4c0-81.6-13.8-147.7-30.8-147.7s-30.7,71.6-30.7,160H36.2C36.2,79.4,61.1,2.3,91.6,2.3c17.4,0,33,23.2,43.1,59.4a193,193,0,0,1,9.5-26.5c.2-.6.5-1.1.7-1.7l.2-.3h.2Z" fill="#ffc629"/><path d="M225.4,86.2,200.3,65.6c-5.6-31.4-13.6-51-22.5-51-5.6,0-10.9,7.2-15.4,19.9L149.8,24.2c8.2-13.9,17.8-21.9,28-21.9C198,2.3,215.7,35.9,225.4,86.2Z" fill="#ffc629"/><path d="M233.2,174.6H208.6c0-23.4-1-45.6-2.7-65.6-1.1-12.8-2.6-24.7-4.2-35.4l24.6,17.5c.9,5.5,1.8,11.1,2.6,16.9A495.9,495.9,0,0,1,233.2,174.6Z" fill="#ffc629"/><path d="M229.5,107.2l-.6.8a1.4,1.4,0,0,1-1.6.3,2.2,2.2,0,0,1-1.1-1.9c-.4-2.3,0-4.6.1-6.9s-.2-4.7-1.5-6.6a1.5,1.5,0,0,0-1.3-.9c-.6-.1-1.1.5-1.5,1a12.5,12.5,0,0,0-1.6,5.7,74,74,0,0,0,1.4,22.5,5.3,5.3,0,0,1,.2,2.5,2,2,0,0,1-1.7,1.7,2,2,0,0,1-1.7-1.4,6.5,6.5,0,0,1-.2-2.4,100.9,100.9,0,0,0-.5-18.2c-.4-2.5.9-7.2-2.4-8.2a25,25,0,0,0-2.9-.5c-2.5-.6-1.9-5.1-4.7-4.7s-2,2.1-2.1,3.7c-.5,4.5.7,9,.7,13.5a2.8,2.8,0,0,1-.6,1.8.9.9,0,0,1-.7.3c-.7,0-1.1-1-1.3-1.7-1.3-6.7.1-13.5-.6-20.3-.3-2.9-.8-5.9-1.2-8.9-.2-1.4-.2-3-.4-4.4a1.1,1.1,0,0,1-.1-.5c-.1-.3,24.7,17.6,24.7,17.6l1.9,1.4a38,38,0,0,1,.6,4l.9,8A7.8,7.8,0,0,1,229.5,107.2Z" fill="#c02026"/><path d="M159.5,43.6V44c-.2,1.3-1,3.3-1.3,4.8a34.4,34.4,0,0,0-1.1,9.1c0,3.9-.8,7.5-.8,11.4a139.9,139.9,0,0,0,.6,14.4c.2,1.9,1.5,11.2-1,12.3s-2.5-5-2.5-6.4c0-5.8-.1-11.7,0-17.5.1-3.5.3-6.9.7-10.3s2.7-22.1-4.2-17.9c-2.2,1.4-1.5,4.2-1.5,6.5V60.6c0,2.5-.2,4.9-.2,7.4s.2,5.7-2.5,3.6-.4-5.6-.4-7.3V53.2c0-4.1.7-8.8,0-12.8-.2-1.1-1.2-3.5-1.1-5.2a1.9,1.9,0,0,1,.7-1.7l.4-.2h0l14.2,10.1Z" fill="#c02026"/><path d="M90.9,94.6l-.7-.2C89.5,92.7,92.5,93.4,90.9,94.6Z" fill="#c02026" fill-rule="evenodd"/><path d="M83.5,95.8c.3,0,.5,0,.5.2S83.5,96,83.5,95.8Z" fill="#c02026" fill-rule="evenodd"/><path d="M51.2,96.4h-.6C50.4,95.8,51.4,95.7,51.2,96.4Z" fill="#c02026" fill-rule="evenodd"/><path d="M103.3,95.9h.3v.2h-.3Z" fill="#c02026" fill-rule="evenodd"/><path d="M56.8,98.8c.3,0,.3.3.2.5S56.7,99,56.8,98.8Z" fill="#c02026" fill-rule="evenodd"/><path d="M104,102.3l.7.4a1.6,1.6,0,0,0,.1,1c-.4.1-.3.6-.7.7s-1.7-2-.2-1.9-.4-.6-.5-.9.1-1.6,1.2-1.4.6,1.1.1,1.9Z" fill="#c02026" fill-rule="evenodd"/><path d="M87,102.7a1.4,1.4,0,0,1,0,1.5C84.9,105,85.2,101.7,87,102.7Z" fill="#c02026" fill-rule="evenodd"/><path d="M113.8,102.7c.1-.2.2.2.2.4a1.6,1.6,0,0,0,1.3-.3c.1.8.7,1.4.6,2.3a1.9,1.9,0,1,1-3.7-.2c.1-.8.6-1,.9-1.9S113.9,103.1,113.8,102.7Z" fill="#c02026" fill-rule="evenodd"/><path d="M106.3,103.6c.3.1.6.2.7.5a1.2,1.2,0,0,0,.5-.5c.3.9,1.1,1.3,1.2,2.1s-.4,2.7-1.7,2.9-3.2,1-2.3-.8c-.3-.3-.5-.8-.9-.9s.6-.3.3-.8.6-.8.3-1.3.8-.4.9-.8S106.3,104.1,106.3,103.6Z" fill="#c02026" fill-rule="evenodd"/><path d="M35.5,108.4a1.1,1.1,0,0,1,0,.8.6.6,0,0,1-.8-.8C34.9,108.3,35.3,108.4,35.5,108.4Z" fill="#c02026" fill-rule="evenodd"/><path d="M109.2,109.8c.4-.4,0,.5-.1.1S109.1,109.9,109.2,109.8Z" fill="#c02026" fill-rule="evenodd"/><path d="M76.6,110.7h-.3C76.2,110.4,76.7,110.4,76.6,110.7Z" fill="#c02026" fill-rule="evenodd"/><path d="M42.2,112.5c0,.3-.2.4-.5.4S42,112.4,42.2,112.5Z" fill="#c02026" fill-rule="evenodd"/><path d="M31.1,113.3c-.2.2-.4.1-.6,0v-.4C30.9,112.8,31.1,112.8,31.1,113.3Z" fill="#c02026" fill-rule="evenodd"/><path d="M23.8,113.1c1.3,1,2.2,2.5,3.4,3.6-1.6-.3-2.3-2.3-3.5-3.3S23.7,113.2,23.8,113.1Z" fill="#c02026" fill-rule="evenodd"/><path d="M92,115.8c.2,0,.2.1.2.3h-.4C91.9,115.9,92,115.9,92,115.8Z" fill="#c02026" fill-rule="evenodd"/><path d="M23.9,116.5c1-.3.9,1,.3,1.1S23,116.7,23.9,116.5Z" fill="#c02026" fill-rule="evenodd"/><path d="M64.9,117.5c0,.4-.2.5-.6.5S64.5,117.2,64.9,117.5Z" fill="#c02026" fill-rule="evenodd"/><path d="M114.6,118.5c.4-.4.3.2,0,0Z" fill="#c02026" fill-rule="evenodd"/><path d="M38.9,118.8c-.2,0-.3,0-.3-.2S39,118.5,38.9,118.8Z" fill="#c02026" fill-rule="evenodd"/><path d="M30.8,119.9h.3C31.1,120.3,30.7,120,30.8,119.9Z" fill="#c02026" fill-rule="evenodd"/><path d="M74.4,120.6c0,.2.1.5.1.3s-.1.5,0,.8h-.8C73.2,121.4,73.4,120.4,74.4,120.6Z" fill="#c02026" fill-rule="evenodd"/><path d="M44.1,121.7c0-.1,0-.1.1-.1h.2v.3h-.3C44.1,121.8,44.2,121.7,44.1,121.7Z" fill="#c02026" fill-rule="evenodd"/><path d="M103.2,122.6a1.1,1.1,0,0,1,.1,1.4C101.7,124.5,101.7,122.2,103.2,122.6Z" fill="#c02026" fill-rule="evenodd"/><path d="M49.1,122.7c.3.5-.3.6,0,0Z" fill="#c02026" fill-rule="evenodd"/><path d="M90.4,122.8h.3v.3h-.3Z" fill="#c02026" fill-rule="evenodd"/><path d="M54.8,125c.3.4-.3.7,0,0Z" fill="#c02026" fill-rule="evenodd"/><path d="M33.5,125.4c.2-.2.3.2.4.2S33.6,125.5,33.5,125.4Z" fill="#c02026" fill-rule="evenodd"/><path d="M74.6,128.1h.2v.2h-.2C74.4,128.5,74.6,128.2,74.6,128.1Z" fill="#c02026" fill-rule="evenodd"/><path d="M49,130.8c.1-.3.1.2.1.3S49,130.9,49,130.8Z" fill="#c02026" fill-rule="evenodd"/><path d="M22.2,131c.4.5,0,.9-.5,1s-.5-.3-.4-.8Z" fill="#c02026" fill-rule="evenodd"/><path d="M101.1,131.8c.4-.3,1-.2,1.1.2S100.7,133.1,101.1,131.8Z" fill="#c02026" fill-rule="evenodd"/><path d="M28.9,133.7a.3.3,0,0,1,.3.3C29.1,133.9,28.8,134,28.9,133.7Z" fill="#c02026" fill-rule="evenodd"/><path d="M69.7,133.8c-.1.2-.2.4-.7.4S69.3,133.8,69.7,133.8Z" fill="#c02026" fill-rule="evenodd"/><path d="M31.1,134.5c0-.2.3,0,.3,0S31.1,134.5,31.1,134.5Z" fill="#c02026" fill-rule="evenodd"/><path d="M24.4,134.9h.3v.3C24.5,135.1,24.3,135.1,24.4,134.9Z" fill="#c02026" fill-rule="evenodd"/><path d="M90.4,135.2c-.2.1-.2,0-.3-.1A.2.2,0,1,1,90.4,135.2Z" fill="#c02026" fill-rule="evenodd"/><path d="M82.3,135.4c.2.2.7,0,1.1.1s.2.4.6.3a2.4,2.4,0,0,1,.3,2.3c-.3.3-.7.5-.9.9s-.4-.1-.8.1a1.9,1.9,0,0,1-.7-3.5C82.2,135.6,82.3,135.8,82.3,135.4Z" fill="#c02026" fill-rule="evenodd"/><path d="M64.4,135.8c.3.3-.5.2-.5.4S64.4,136,64.4,135.8Z" fill="#c02026" fill-rule="evenodd"/><path d="M62.2,136c0,.2-.3.3-.5.3A.6.6,0,0,1,62.2,136Z" fill="#c02026" fill-rule="evenodd"/><path d="M67.4,136.3l-.4.2C66.9,136.3,67.2,136.3,67.4,136.3Z" fill="#c02026" fill-rule="evenodd"/><path d="M74,136.9c.8.4,2.1.2,2.4,1.2-1.2.1-1.3-.8-2.3-.9Z" fill="#c02026" fill-rule="evenodd"/><path d="M63.7,137.1c0,.2-.2.2-.3.2S63.5,137,63.7,137.1Z" fill="#c02026" fill-rule="evenodd"/><path d="M66.1,139.8c-.9.5-1.7-.2-2.6-.2C64.2,139.3,65.3,139.7,66.1,139.8Z" fill="#c02026" fill-rule="evenodd"/><path d="M68.2,139.8a3.1,3.1,0,0,1-1.9,0A4.1,4.1,0,0,1,68.2,139.8Z" fill="#c02026" fill-rule="evenodd"/><path d="M39.4,140.7l.2.4h-.3C39.3,140.9,39.4,140.8,39.4,140.7Z" fill="#c02026" fill-rule="evenodd"/><path d="M63.6,142c.1-.2.2.1.5,0S63.6,142.1,63.6,142Z" fill="#c02026" fill-rule="evenodd"/><path d="M66,141.9c0,.4-.4.3-.7.3S65.8,142,66,141.9Z" fill="#c02026" fill-rule="evenodd"/><path d="M23.2,144.3c.1.4.1.6-.2.8S22.6,143.7,23.2,144.3Z" fill="#c02026" fill-rule="evenodd"/><path d="M64.8,148c.3-.3.5.2,0,0Z" fill="#c02026" fill-rule="evenodd"/><path d="M67.3,148.6c-.4.2-.6-.3-1.2-.3S67,148.4,67.3,148.6Z" fill="#c02026" fill-rule="evenodd"/><path d="M69.1,148.2h.3C69.4,148.5,69,148.4,69.1,148.2Z" fill="#c02026" fill-rule="evenodd"/><path d="M67.5,148.7c.1-.1.6-.1.5.2Z" fill="#c02026" fill-rule="evenodd"/><path d="M22.7,149.4c1.2-.4,1.1,1.4.4,1.5A.8.8,0,0,1,22.7,149.4Z" fill="#c02026" fill-rule="evenodd"/><path d="M40.2,149.5l.2.2c0,.1-.2.1-.1.3S40.2,149.7,40.2,149.5Z" fill="#c02026" fill-rule="evenodd"/><path d="M60.9,150.6c0,.3.2.2.3.3s-.6-.3-.9-.2S60.6,150.7,60.9,150.6Z" fill="#c02026" fill-rule="evenodd"/><path d="M64.9,152.1c-.4.2-.7,0-1,.1S64.5,152,64.9,152.1Z" fill="#c02026" fill-rule="evenodd"/><path d="M66.8,152.1c.2-.2.4.2.6.2S67,152.1,66.8,152.1Z" fill="#c02026" fill-rule="evenodd"/><path d="M41.7,152.8c.3.1.1.3,0,.4S41.7,152.9,41.7,152.8Z" fill="#c02026" fill-rule="evenodd"/><path d="M31.8,153.2c0-.2.4-.1.5,0S31.8,153.3,31.8,153.2Z" fill="#c02026" fill-rule="evenodd"/><path d="M30.3,154.3c.5-.2.9,0,1,.3s-1.3,1.7-1.5.6S29.7,154.5,30.3,154.3Z" fill="#c02026" fill-rule="evenodd"/><path d="M14.4,156.2h.3c0,.3-.1.4-.4.4S14.2,156.4,14.4,156.2Z" fill="#c02026" fill-rule="evenodd"/><path d="M71.3,157.8c.3.1,0,.4.2.6S71.3,158.1,71.3,157.8Z" fill="#c02026" fill-rule="evenodd"/><path d="M42.9,158.2c.3.3-.2.5-.2.8S42.8,158.4,42.9,158.2Z" fill="#c02026" fill-rule="evenodd"/><path d="M50,158.3c.4.4,0,.8,0,0Z" fill="#c02026" fill-rule="evenodd"/><path d="M56.1,158.5a1.6,1.6,0,0,1,.7,1.3C56.6,159.4,55.9,159.2,56.1,158.5Z" fill="#c02026" fill-rule="evenodd"/><path d="M63.1,158.8l.2.2C63,159.1,63,158.9,63.1,158.8Z" fill="#c02026" fill-rule="evenodd"/><path d="M88.8,159.6a.3.3,0,0,1,.3.3c-.1,0,0,.1-.1.2h-.4C88.5,159.7,88.7,159.7,88.8,159.6Z" fill="#c02026" fill-rule="evenodd"/><path d="M50.3,159.7c.2,0,.2.3.1.5S50.1,159.8,50.3,159.7Z" fill="#c02026" fill-rule="evenodd"/><path d="M35,161.1c.3.2-.2.2-.2.5S34.9,161.2,35,161.1Z" fill="#c02026" fill-rule="evenodd"/><path d="M50.2,161.5c.3-.1.3.4,0,.3Z" fill="#c02026" fill-rule="evenodd"/><path d="M72.2,162.1c0,.4-.8.3-.7-.1S72.1,161.8,72.2,162.1Z" fill="#c02026" fill-rule="evenodd"/><path d="M18.5,162.6c0,.2-.1.2-.1.4s-.6-.1-.6-.4S18.4,162.2,18.5,162.6Z" fill="#c02026" fill-rule="evenodd"/><path d="M67.5,163.7c.1-.1.1,0,.2.1h-.2Z" fill="#c02026" fill-rule="evenodd"/><path d="M12.4,164.4h.4c0,.3-.2.4-.5.3S12.3,164.5,12.4,164.4Z" fill="#c02026" fill-rule="evenodd"/><path d="M50.6,164.7c.1-.3.1.2.1.4S50.6,164.8,50.6,164.7Z" fill="#c02026" fill-rule="evenodd"/><path d="M53.4,164.6v.3h-.3C53.1,164.6,53.2,164.6,53.4,164.6Z" fill="#c02026" fill-rule="evenodd"/><path d="M57.5,164.9c.3,0,.7.7.6,1.6s-.4-.6,0-.6S57.7,165.2,57.5,164.9Z" fill="#c02026" fill-rule="evenodd"/><path d="M85.7,165.2c.1.7-.2.9-.8.8S85.4,164.6,85.7,165.2Z" fill="#c02026" fill-rule="evenodd"/><path d="M96.4,166.3c.3,2-3,1.8-2.3-.1S95.9,165.4,96.4,166.3Z" fill="#c02026" fill-rule="evenodd"/><path d="M49.9,166.8c.4.7.2,1.3.3,2.4A6.3,6.3,0,0,1,49.9,166.8Z" fill="#c02026" fill-rule="evenodd"/><path d="M49.5,167c.4.4,0,1.1.2,1.6S49.6,167.5,49.5,167Z" fill="#c02026" fill-rule="evenodd"/><path d="M39.5,167.4c.2.1-.1.5-.1.6S39.5,167.6,39.5,167.4Z" fill="#c02026" fill-rule="evenodd"/><path d="M48.5,168.4c.1-.3,0,.3,0,.4S48.5,168.5,48.5,168.4Z" fill="#c02026" fill-rule="evenodd"/><path d="M50.1,170.4c.1-.3.1.3.1.4S50.1,170.5,50.1,170.4Z" fill="#c02026" fill-rule="evenodd"/><path d="M99.6,170.5c.5-.2,1.6-.2,1.9.3S100,170.8,99.6,170.5Z" fill="#c02026" fill-rule="evenodd"/><path d="M82,171.4c-.3.1-.3-.2-.6-.1C81,169.9,83,170.7,82,171.4Z" fill="#c02026" fill-rule="evenodd"/><path d="M50.1,171.1Z" fill="#c02026" fill-rule="evenodd"/><path d="M50.1,171.6c.2,0,.2.8.1,1.1S50.2,172,50.1,171.6Z" fill="#c02026" fill-rule="evenodd"/><path d="M49.5,172.7c.1-.2-.2.8,0,0Z" fill="#c02026" fill-rule="evenodd"/><path d="M63.1,173.5a1.3,1.3,0,0,1-.1,1.2C61,176.1,61,171.8,63.1,173.5Z" fill="#c02026" fill-rule="evenodd"/><path d="M57.8,174.7c-.1.1-.2.2-.4.1S57.9,174.2,57.8,174.7Z" fill="#c02026" fill-rule="evenodd"/><path d="M89.6,174.4c.3,0,.3.5,0,.4s-.2-.1-.1-.3Z" fill="#c02026" fill-rule="evenodd"/><path d="M71.3,175.1c.5.1-.3.4,0,0Z" fill="#c02026" fill-rule="evenodd"/><path d="M62.9,175.5c-.2.3-.3.3-.6.1S62.6,175.5,62.9,175.5Z" fill="#c02026" fill-rule="evenodd"/><path d="M55.7,176c.2-.1.2,0,.3.1s-.1.1,0,.1-.2.2-.4.1S55.7,176.1,55.7,176Z" fill="#c02026" fill-rule="evenodd"/><path d="M79.3,183.4c.2.3.1.5,0,.8h-.6A.5.5,0,1,1,79.3,183.4Z" fill="#c02026" fill-rule="evenodd"/><path d="M114.2,110.6c-.1.1-.1.3-.5.3S114.1,110.7,114.2,110.6Z" fill="#c02026" fill-rule="evenodd"/><path d="M38.6,124.1c.1-.1.4,1.1,0,0Z" fill="#c02026" fill-rule="evenodd"/><path d="M33,124.5c.1-.3.2.2.4.2S33.1,124.5,33,124.5Z" fill="#c02026" fill-rule="evenodd"/><path d="M37.1,125.3c.1-.2.4.1.4.2S37.3,125.3,37.1,125.3Z" fill="#c02026" fill-rule="evenodd"/><path d="M39.1,127.8c.1-.1.6.9,0,0Z" fill="#c02026" fill-rule="evenodd"/><path d="M62.9,139.8c-.6.4-1,2.1-.6,3.3s-.6,2.8-.2,3.6-.8.2-1.1.6-.1,1.5-.5,2.1.8.7,1,1.3a2.2,2.2,0,0,0-1.1-.5c0-.3.2.1.3-.2s-.2-.3-.4-.4-1.5,2.1-2.9,2.5a6,6,0,0,1-2.2,1.6,8.6,8.6,0,0,0-.3,1.7c.3.2.4.8.7.8s.2.9-.2,1-.8-2.9-1.5-3-1.1.3-1.7.5-1.4.9-2.1.8-.7-.4-.9-.5a9.9,9.9,0,0,1-1.7.2c-1.2-.1-1.9-1.4-3.2-.5s-.5-.4-.6-.5-.2,2.3-1.4,2.7c-.3-1.5,1-2.9.4-4.4s-.2-.5-.4-.3a3,3,0,0,0,0-3.5c-.1.1-.2.2-.4.1s-.1.4-.3.6-.1-.3-.4-.2.5-1,.8-1.5-.2-.1-.2-.4l-.2.2c-.4-.1.2-.1,0-.3s-.5,0-.7,0-.8-1.1-.5-2.3-.5-.4-.5-.8.3-.6.4-.9-.4-.4-.6-.7c1-2.3-1.7-3.4-2.5-5.1s-.3.1-.5.1-3.5-.6-5.1-.8c0-.2-.1-.3-.1-.5s1.2.1,1.5,0-.4-1.3-1-1.4-.7-.9-1.1-1.3-2-1.6-3.7-1.8c.7-.3-.3-.9-.6-1.2s-1.9-.9-1.6-2,1.1.6,1.5,1a7.1,7.1,0,0,1,3.5,2.8c1.4-.3,1.4.8,2,1.3s-.1.2,0,.4,5.7,1.8,5.9-1.1a1.8,1.8,0,0,0,2.3-.8c-.6-1.1-1.8-1.6-2.7-2.4s.1-.6.4-.6,1.4,2.2,2.9,2.2-.3-.4-.3-.7.4.4.6.6,1.3.2,1.8-.2,4.1,2.2,5.3,1l.6.2c.4-.3.9-.2,1.2-.3a5.3,5.3,0,0,0,3.3.4,7.4,7.4,0,0,1,1.4-.4l1.3.2c1.6-.3,1.5-2.4,2.8-3.2.1,1.9-2,2.4-2,4.2.6.2.7-.2,1.3-.2s-.3,1,.2,1.4.7-.5,1.2-.2-.3.6-.5.9,2,1.2,3,1.6c-1.2.4-1.1,2.4-.5,3.2s1.1-.3,1.5,0Z" fill="#c02026" fill-rule="evenodd"/><path d="M69.2,134.5c.1.3-.3.1-.3.3S69.1,134.5,69.2,134.5Z" fill="#c02026" fill-rule="evenodd"/><path d="M66.8,135.2c.1.1-1.1.4,0,0Z" fill="#c02026" fill-rule="evenodd"/><path d="M65.5,135.7c.1,0-.1.1,0,.2h-.2C65,135.8,65.5,135.8,65.5,135.7Z" fill="#c02026" fill-rule="evenodd"/><path d="M63.6,136c0,.4-.7.3-.7.4s0-.2.5-.3S63.6,136.2,63.6,136Z" fill="#c02026" fill-rule="evenodd"/><path d="M65.8,136.1c.3,0-.8.3,0,0Z" fill="#c02026" fill-rule="evenodd"/><path d="M37.7,141.8c.2-.1.4.4.8.2s-.1.2-.1.4-.4-.3-.9-.2S38.2,142.1,37.7,141.8Z" fill="#c02026" fill-rule="evenodd"/><path d="M68.6,143.2c.1.3-.4,0-.4.2S68.5,143.2,68.6,143.2Z" fill="#c02026" fill-rule="evenodd"/><path d="M65.2,144.4c.2-.3.6,0,.9,0S65.6,144.3,65.2,144.4Z" fill="#c02026" fill-rule="evenodd"/><path d="M76.6,145.1c.2,0-.1.3-.3.2s-.1-.4,0-.6h.3C76.7,145,76.5,145.3,76.6,145.1Z" fill="#c02026" fill-rule="evenodd"/><path d="M63.4,147.3c-.2-.2.5.1.7.1s-.5-.1-.5.1,0-.1,0-.1Z" fill="#c02026" fill-rule="evenodd"/><path d="M39.8,150.2c-.2.4-.5.1,0,0Z" fill="#c02026" fill-rule="evenodd"/><path d="M61.4,151.1l.6.2C61.8,151.5,61.6,151.3,61.4,151.1Z" fill="#c02026" fill-rule="evenodd"/><path d="M43.8,155.8c.2-.2,0,.4-.1.4S43.8,155.9,43.8,155.8Z" fill="#c02026" fill-rule="evenodd"/><path d="M43.6,156.3c.2.2-.2.5-.2.7S43.4,156.4,43.6,156.3Z" fill="#c02026" fill-rule="evenodd"/><path d="M38.1,156.8c.1.7-.7,1.3-1.2,1.8S37.8,157.4,38.1,156.8Z" fill="#c02026" fill-rule="evenodd"/><path d="M42.4,159.2v.9C41.9,160,42.3,159.4,42.4,159.2Z" fill="#c02026" fill-rule="evenodd"/><path d="M57,160.6c.1-.2.4.2.2.4s-.1-.1,0-.1-.3-.2-.1-.2Z" fill="#c02026" fill-rule="evenodd"/><path d="M40.9,162.4c0,.6-.6,1.4-.8,2.1A4.2,4.2,0,0,1,40.9,162.4Z" fill="#c02026" fill-rule="evenodd"/><path d="M56.7,162.5c.4.3.2.7.5,1.1A1.8,1.8,0,0,1,56.7,162.5Z" fill="#c02026" fill-rule="evenodd"/><path d="M41.6,162.9c.2.1-.1.2-.1.3S41.6,163,41.6,162.9Z" fill="#c02026" fill-rule="evenodd"/><path d="M41.1,163.8c.1.4-.2.9-.5,1.4S40.9,164.2,41.1,163.8Z" fill="#c02026" fill-rule="evenodd"/><path d="M38.9,166.7c.2.3-.2.8-.3,1.2S38.8,167,38.9,166.7Z" fill="#c02026" fill-rule="evenodd"/><path d="M49.8,174.6c-.3,0-.3-.3-.5-.5S50.6,174.2,49.8,174.6Z" fill="#c02026" fill-rule="evenodd"/><path d="M84.8,117.4c.9.3,1.4.3,1.7,1.1A1.8,1.8,0,0,1,84.8,117.4Z" fill="#c02026" fill-rule="evenodd"/><path d="M111.3,117.6a.8.8,0,0,0,.4.4c.4.1.3-.3.6-.2a1.6,1.6,0,0,0,1.5,1l.6,2.3a1.5,1.5,0,0,1-.3.7c.2.7-.6,1-.6,1.7s-.7,0-.6.5a6.2,6.2,0,0,1-2.3.2,6.7,6.7,0,0,1-2.5-2.5c.7-.1.4-1.1.3-1.7a2.7,2.7,0,0,0,.7-.8.5.5,0,0,0-.3-.5C109.6,118.5,110.4,117.9,111.3,117.6Z" fill="#c02026" fill-rule="evenodd"/><path d="M73.8,134.9c-.1,1-1.6,1.1-1.3-.3A.8.8,0,0,1,73.8,134.9Z" fill="#c02026" fill-rule="evenodd"/><path d="M39.8,147.3c.4.3,1,.3,1,1s-.3-.6-.4-.1,0-.7-.8-.5S39.8,147.4,39.8,147.3Z" fill="#c02026" fill-rule="evenodd"/><path d="M43.5,153c2.7,3.2,3,8,3.3,12,.7,7,0,13.5-.2,20.4-.1,3.2,1.2,3.8,2.7,1.4s.2-6.2.2-8.4c0-4.2-.4-8.7-.4-13a41.2,41.2,0,0,1,.5-7c.3-2.4,1.3-3.4,2.4-5.4" fill="#c02026" fill-rule="evenodd"/><path d="M221.4,23.1l-.9.5h-.1c.2-.3,1-.5,1-.5h.1C221.6,23,221.5,23.2,221.4,23.1Z" fill="#c02026" fill-rule="evenodd"/><path d="M215.6,17.7c0,.3-.2.3-.4.5s-.5,1.1-1,1,0-.1,0-.2-.1-.3-.3-.3,0,.2-.2.3-.5,0-.5-.4l.2-.3h.1a8.4,8.4,0,0,1,1.9-.8Z" fill="#c02026" fill-rule="evenodd"/><path d="M214.2,16.6c.2.2,0,.8-.4.5Z" fill="#c02026" fill-rule="evenodd"/><path d="M197.5,2.5c-.1.1-.1-.1-.2.1s-.1-.2,0-.3S197.4,2.4,197.5,2.5Z" fill="#c02026" fill-rule="evenodd"/><path d="M218.9,21.5c.1.2-.2,0-.1.2h-.1C218.7,21.5,218.8,21.5,218.9,21.5Z" fill="#c02026" fill-rule="evenodd"/><path d="M212.1,16h.1c-.1.1-.2.3-.3.2h0Z" fill="#c02026" fill-rule="evenodd"/><path d="M231.8,36.9a.2.2,0,0,1-.2.2h-.1C231.6,36.9,231.7,36.8,231.8,36.9Z" fill="#c02026" fill-rule="evenodd"/><path d="M200.6,9.8c-.1-.2.1,0,0,.1l-.2-.2h.1Z" fill="#c02026" fill-rule="evenodd"/><path d="M211.4,19.5c.4.2-.1.6-.2.1Z" fill="#c02026" fill-rule="evenodd"/><path d="M221.6,29.7h-.1c-.1,0-.1-.1-.2,0s0-.1-.1,0S221.5,29.7,221.6,29.7Z" fill="#c02026" fill-rule="evenodd"/><path d="M208.7,18.4c0,.1.2.2.1.4s-.2-.2-.2-.3h-.2c-.1-.1,0-.1,0-.2s.1.1.2-.1Z" fill="#c02026" fill-rule="evenodd"/><path d="M208.8,18.7c0,.3,0,.4-.2.6s-.3-.2-.3-.3S208.7,19.1,208.8,18.7Z" fill="#c02026" fill-rule="evenodd"/><path d="M213.9,23.8c0,.1-.1.2-.3.2S213.8,23.5,213.9,23.8Z" fill="#c02026" fill-rule="evenodd"/><path d="M219.8,29.8c-.2-.1-.1-.2,0-.3a.1.1,0,0,0,.1-.1C220.1,29.7,219.9,29.8,219.8,29.8Z" fill="#c02026" fill-rule="evenodd"/><path d="M216.4,27.8V28c0-.2-.1-.3-.1-.4S216.2,27.8,216.4,27.8Z" fill="#c02026" fill-rule="evenodd"/><path d="M215,26.6h-.1C214.8,26.6,214.9,26.5,215,26.6Z" fill="#c02026" fill-rule="evenodd"/><path d="M212.8,25.1l.4.6-.5.7h0c0-.1.1-.2,0-.3S213.1,25.6,212.8,25.1Z" fill="#c02026" fill-rule="evenodd"/><path d="M213.6,25.8h.1a.1.1,0,0,1-.1.1h-.1C213.4,25.9,213.6,25.9,213.6,25.8Z" fill="#c02026" fill-rule="evenodd"/><path d="M219.1,31.8h.1c0,.1-.1,0-.2,0Z" fill="#c02026" fill-rule="evenodd"/><path d="M213.8,27.2c0,.1-.3.3-.4.2l.2-.2C213.7,27.3,213.7,27.3,213.8,27.2Z" fill="#c02026" fill-rule="evenodd"/><path d="M214.4,27.8c.2.1.1.3,0,.4S214.3,27.9,214.4,27.8Z" fill="#c02026" fill-rule="evenodd"/><path d="M199.8,15.3c.1.2.1.1,0,.3h-.1Z" fill="#c02026" fill-rule="evenodd"/><path d="M192.1,9c.3.1.4.3.2.5a.9.9,0,0,1-.1-.5Z" fill="#c02026" fill-rule="evenodd"/><path d="M213.5,28.3c.1.1,0,.1,0,.2s0-.1-.1-.1Z" fill="#c02026" fill-rule="evenodd"/><path d="M215.3,32.3v-.2C215.3,32.1,215.5,32.1,215.3,32.3Z" fill="#c02026" fill-rule="evenodd"/><path d="M190.8,11.1h.2s-.1,0,0,.1-.3-.2-.2-.3h0C190.9,11.2,190.9,11.2,190.8,11.1Z" fill="#c02026" fill-rule="evenodd"/><path d="M203.1,22.7h-.3c.1,0,0,0,.1-.1s-.2-.2-.3-.1a.4.4,0,0,1-.1-.3C202.7,22.1,203,22.5,203.1,22.7Z" fill="#c02026" fill-rule="evenodd"/><path d="M189.7,11.8l.2.3c0,.1-.1,0,0,.1s-.1-.1-.2-.1S189.5,12,189.7,11.8Z" fill="#c02026" fill-rule="evenodd"/><path d="M188.6,11c.2,0,.1.2,0,.3S188.7,11.1,188.6,11Z" fill="#c02026" fill-rule="evenodd"/><path d="M198.2,19.5v.2c-.1-.1.1-.2,0-.2S198.1,19.5,198.2,19.5Z" fill="#c02026" fill-rule="evenodd"/><path d="M190,12.7c.2-.1.2.1.3.2S190.1,12.7,190,12.7Z" fill="#c02026" fill-rule="evenodd"/><path d="M192.6,15.7a.3.3,0,0,1,0,.4C192.5,16.1,192.4,15.9,192.6,15.7Z" fill="#c02026" fill-rule="evenodd"/><path d="M200.3,23.6c.1,0,.1,0,.1-.1s.1.3,0,.4h0C200.3,23.7,200.5,23.7,200.3,23.6Z" fill="#c02026" fill-rule="evenodd"/><path d="M213.5,36.1a.1.1,0,0,1-.1-.1c0-.1-.1,0-.1-.1S213.6,35.9,213.5,36.1Z" fill="#c02026" fill-rule="evenodd"/><path d="M215.4,37.9c-.1.1-.2.1-.3-.1s.1,0,0-.1S215.4,37.8,215.4,37.9Z" fill="#c02026" fill-rule="evenodd"/><path d="M196.5,21.2c0,.1.2.2,0,.3l-.3-.2Z" fill="#c02026" fill-rule="evenodd"/><path d="M187.9,15.9c-.1.1-.2,0-.4-.1A.2.2,0,0,1,187.9,15.9Z" fill="#c02026" fill-rule="evenodd"/><path d="M213.5,38.5a.3.3,0,0,0-.1.2h0c-.1,0,0-.1-.1-.1Z" fill="#c02026" fill-rule="evenodd"/><path d="M207.3,34.1a.2.2,0,0,1-.4-.1C207,33.9,207.2,34,207.3,34.1Z" fill="#c02026" fill-rule="evenodd"/><path d="M186.1,17.8c-.2,0-.5-.3-.8-.6s-.2-.5.2-.8,0,.1.1.2S186.5,17.4,186.1,17.8Z" fill="#c02026" fill-rule="evenodd"/><path d="M208.5,38.5c.2,0,.1.3-.1.2S208.6,38.6,208.5,38.5Z" fill="#c02026" fill-rule="evenodd"/><path d="M207.2,37.9c.1,0,0,.1,0,.1h-.1c0-.1,0-.1.1-.3H207c0-.1.3,0,.1-.1h0C207.4,37.5,207.2,38,207.2,37.9Z" fill="#c02026" fill-rule="evenodd"/><path d="M202.5,34.1a.3.3,0,0,0,.1.2C202.5,34.4,202.4,34.1,202.5,34.1Z" fill="#c02026" fill-rule="evenodd"/><path d="M204.9,37.1a.8.8,0,0,1-.1.4c-.2,0-.5-.3-.4-.5S204.8,36.9,204.9,37.1Z" fill="#c02026" fill-rule="evenodd"/><path d="M201.7,35.8h0c-.1,0,.1.1,0,.1h0Z" fill="#c02026" fill-rule="evenodd"/><path d="M217.2,49.9c.1.1-.1.1,0,.1s-.2,0-.2-.1Z" fill="#c02026" fill-rule="evenodd"/><path d="M203.1,40.1c-.3-.1-.6-.5-.2-.8S203.5,39.7,203.1,40.1Z" fill="#c02026" fill-rule="evenodd"/><path d="M201.1,39.3h0c0,.2-.4-.1-.2-.3l.3.3Z" fill="#c02026" fill-rule="evenodd"/><path d="M205.7,44.3c-.2-.1,0,0-.2.1s.2.2,0,.3,0-.4-.3-.6h.1c0-.1-.1-.1-.2-.1s.1-.1,0-.1A.7.7,0,0,1,205.7,44.3Z" fill="#c02026" fill-rule="evenodd"/><path d="M199.9,39.9h.1C199.9,40,200,40,199.9,39.9Z" fill="#c02026" fill-rule="evenodd"/><path d="M201.4,42.3c-.3.3-.1.5-.4.6s-.7-.6-.8-1A.7.7,0,0,1,201.4,42.3Z" fill="#c02026" fill-rule="evenodd"/><path d="M198,39.4c0,.1.1.1.1.3s-.3-.4-.2-.5.2.1.2.2Z" fill="#c02026" fill-rule="evenodd"/><path d="M200.7,43.4c-.2,0-.2-.3,0-.4S200.9,43.3,200.7,43.4Z" fill="#c02026" fill-rule="evenodd"/><path d="M179.8,24.7a.2.2,0,0,1-.2.2A.2.2,0,0,1,179.8,24.7Z" fill="#c02026" fill-rule="evenodd"/><path d="M184.6,31.2c0,.2-.2.1-.3,0h.3Z" fill="#c02026" fill-rule="evenodd"/><path d="M205.9,50.6c0,.1.1,0,.1-.1h-.2c.1-.5.7.1.4.4S205.8,50.8,205.9,50.6Zm.2.2c0-.1.1-.1.1-.2s-.1-.1-.1,0S205.9,50.7,206.1,50.8Z" fill="#c02026" fill-rule="evenodd"/><path d="M204.3,60.6c0-.1.1,0,.1.1s-.1.1,0,.1-.1,0-.1-.1S204.4,60.6,204.3,60.6Z" fill="#c02026" fill-rule="evenodd"/><path d="M190.6,55h.1c-.2,0-.1,0-.2.1S190.5,55,190.6,55Z" fill="#c02026" fill-rule="evenodd"/><path d="M216.1,15.3c.2.1-.2.2-.3.5a.3.3,0,0,1-.3-.3c.4,0,.4-.5.7-.3h-.1c.1,0,.1-.2.2-.2S216.2,15.4,216.1,15.3Z" fill="#c02026" fill-rule="evenodd"/><path d="M217.1,17.3c.1-.1,0,.1,0,0h0c.1.1-.2.1-.1.2h-.2c0,.2,0,.2-.1.3l-.2-.2c.2,0,.3,0,.4-.2s.1-.1.1,0Z" fill="#c02026" fill-rule="evenodd"/><path d="M202.2,4.9s.1.2-.1.2.1-.1-.1-.2Z" fill="#c02026" fill-rule="evenodd"/><path d="M218.9,20h-.1c0-.1,0-.2.1-.2s0,.3-.1.4S218.8,20.1,218.9,20Z" fill="#c02026" fill-rule="evenodd"/><path d="M216.1,18.8a1.2,1.2,0,0,1-.9.4C215.4,18.9,215.9,18.4,216.1,18.8Z" fill="#c02026" fill-rule="evenodd"/><path d="M220.8,23c-.1,0-.2-.1-.2,0h0c0,.1,0,0,.1,0s-.2.1-.2-.1h0C220.6,22.7,220.8,22.9,220.8,23Z" fill="#c02026" fill-rule="evenodd"/><path d="M212.9,16c-.3.6-1,1.3-1.4,1.3s.6-.9.7-.9S212.7,15.8,212.9,16Z" fill="#c02026" fill-rule="evenodd"/><path d="M213.3,17.4v.3l-.2-.2Z" fill="#c02026" fill-rule="evenodd"/><path d="M195.9,2.6h-.1a.1.1,0,0,0-.1-.1c.1,0,.2,0,.1-.1a.2.2,0,0,1,.1.3h0Z" fill="#c02026" fill-rule="evenodd"/><path d="M216.4,22.5c0-.1.1.1.1.1h-.2A.1.1,0,0,0,216.4,22.5Z" fill="#c02026" fill-rule="evenodd"/><path d="M206.4,13.7c.1.2-.2.6-.4.8s-.3.6-.4.8,0,.1,0,.1-.1.3-.2.3A5.4,5.4,0,0,1,206.4,13.7Z" fill="#c02026" fill-rule="evenodd"/><path d="M217.8,24.2h-.2c.3-.2.2.3,0,.3s0-.1-.1-.1h.2v-.2A.1.1,0,0,0,217.8,24.2Z" fill="#c02026" fill-rule="evenodd"/><path d="M208.8,17.8h0c.1-.1.1.1.2.2h-.2C208.7,18.1,209.1,17.9,208.8,17.8Z" fill="#c02026" fill-rule="evenodd"/><path d="M211.1,19.9h.1c-.1.2-.3,0-.4,0h.3Z" fill="#c02026" fill-rule="evenodd"/><path d="M205.4,15h-.1c0,.2,0,.2-.1.3h-.1c-.1,0,.4-.6.3-.3Z" fill="#c02026" fill-rule="evenodd"/><path d="M210.7,19.9s-.1.2,0,.2h-.5a.1.1,0,0,1,.1.1c0-.1.2-.3.2-.1S210.5,20,210.7,19.9Z" fill="#c02026" fill-rule="evenodd"/><path d="M218.2,26.6c.2.2-.2.2,0,.2V27h0C218,26.8,218.2,26.8,218.2,26.6Z" fill="#c02026" fill-rule="evenodd"/><path d="M221.2,29.7c-.3.3-.8.1-1.2.2s.2-.2.5-.1S221,29.7,221.2,29.7Z" fill="#c02026" fill-rule="evenodd"/><path d="M215.2,24.5c.6.3.2,1.2-.4.7s-.1-.3-.1-.4S215,24.7,215.2,24.5Z" fill="#c02026" fill-rule="evenodd"/><path d="M205.2,16.1c-.1.2.2.1.1.2s-.3.4-.1,0S205.1,16.2,205.2,16.1Z" fill="#c02026" fill-rule="evenodd"/><path d="M217.9,28h0c.1.1.4.7.7.6s0,.1-.1.2.1.3.2.2a.4.4,0,0,0,.2.4c-.1.2-.3.4-.2.6s-.2.6-.6.8-.1.2,0,.2l-1,.3a2.2,2.2,0,0,1-1.5-.8c.2-.5-.5-.5-.8-.4a.4.4,0,0,1-.1-.3c.1-.1.1-.2.2-.4s.4-.2.4-.3-.3-.1-.4-.2h-.1c.2-.1.2-.4.4-.5l.5.2c.2-.1.4-.3.5-.2l.6-.7c-.2.4.7.5.7.3Z" fill="#c02026" fill-rule="evenodd"/><path d="M205.1,16.9c-.1-.1-.1-.1-.1-.2s.1.1,0,.1h.1c.1,0-.1.1,0,.2H205C205.1,17,205,17,205.1,16.9Z" fill="#c02026" fill-rule="evenodd"/><path d="M215.1,25.9c.1,0,0-.2-.1-.1s.2-.1.2,0-.4.3-.4.1-.1.2-.2.1,0,.2-.1.2-.3.1-.4.2a1.6,1.6,0,0,1-1.2.2h.3c.1,0,0,0,.1.1s.2-.1.3-.4,0,0,.1,0,.4-.2.6,0l.5-.3Z" fill="#c02026" fill-rule="evenodd"/><path d="M226.7,36c.2,0,0,.4.2.1s.1.1.1.2.4.3.1.4,0,0,0-.1-.1,0-.2,0a.1.1,0,0,0-.1-.1h.1c.1,0,.1.1,0,.1h.2c-.1,0-.1-.2-.3-.2s0-.1,0-.2-.1,0-.2-.1a.1.1,0,0,1,.1-.1Z" fill="#c02026" fill-rule="evenodd"/><path d="M197.5,11.1c.1,0,0-.2,0-.3s.5.6.3.8h-.2C197.6,11.3,197.6,11.2,197.5,11.1Z" fill="#c02026" fill-rule="evenodd"/><path d="M215.4,27.6c-.1-.1,0-.1-.1-.2l.4-.4A.4.4,0,0,1,215.4,27.6Z" fill="#c02026" fill-rule="evenodd"/><path d="M204.6,17.7c.1-.1.1.1.2,0s-.1.2-.1.3S204.8,17.8,204.6,17.7Z" fill="#c02026" fill-rule="evenodd"/><path d="M203.5,17.6h-.2l.3-.4h-.1C203.7,17.4,203.2,17.4,203.5,17.6Z" fill="#c02026" fill-rule="evenodd"/><path d="M204.6,28.8h-.1c0-.3,0-.8.3-.9a.7.7,0,0,0-.2-.6v-.3c-.1-.1-.1-.1-.1-.2s0-.2-.1-.2h0a2.8,2.8,0,0,0,.1-.9c-.1-.1-.2-.1-.2-.3v-.4h-.2c.2,0,0,0,0,.1s-.3-.1-.5-.2a.2.2,0,0,1,0-.3v-.2c-.1.1-.1,0-.3-.1s-.3.4-.4.5-.5,0-.7-.3a.9.9,0,0,1-.9-.4c-.1.1-.2.2-.4.1s-.2-.4-.3-.3-.8.3-1-.2-.2.3-.4.3a1,1,0,0,1-.5-.4c-.3.2-.4-.2-.6-.4s-.3-.6-.5-.8h-.3a1.1,1.1,0,0,1,.1.5v.2l-.5-.3h-.1c-.3.6-.6-.1-.9.1v.5c-.4.2-.8-.2-1.2-.3s0-.3-.1-.3h.1c-.1-.1-.2,0-.2-.2h-.2c.1.1.2.1.2.2s0,.1,0,.1l-.4.5a.2.2,0,0,1,0,.3c-.2.1-.3.3-.5.2s0-.2-.1-.2v-.2c-.1.1-.1-.1-.2,0s-.1.3-.3.5l-.4-.2h-.1a5.6,5.6,0,0,0-.2,1c-.3.4-.7.1-1,.1h0c0-.1-.2,0-.2-.1v.3c.1-.1.1,0,.1-.1s0,.1.1.1h0c.5.3-.1.7-.1,1.1a.7.7,0,0,1-.6-.1c-.1.3.2.5.3.7l-.4.3c.1.3,0,1-.6.7s-.3-.5-.3-.7.1.4,0,.7.6.5.8,1.1h.1c.4.4-.3.9-.6.7s.1.3.3.3.3.2.5.4,0,.5.2.7,0,.1,0,.2l-.3.2c.1-.1.1.1.1,0s0,0,.1.1.6.6.3,1,.6.1.3.4-.2,0-.3-.2.2.1.1.2-.2.2-.1.2,0-.1.1,0,0,.1.1.2a2.2,2.2,0,0,1,1.4,0c0,.2.2.4,0,.6s-.1.1.2.1h0a1.1,1.1,0,0,1,1.1.2c-.1.2.1.5-.1.7h.3c0-.2.3-.2.5-.3s.6.1.9.4-.1.1-.1.3.1-.1.1,0,0-.2.1-.2.1.2,0,.2h.1c0,.1-.1.2,0,.1s0-.2,0-.3,1.1-.4,1.4-.2h.1l.6.4c.1,0,.1.2.2.2s.2-.3.4-.2-.1-.1,0-.2h.3c.1-.1.2-.1.2-.2s1.3-.6,2.1-.2.1-.1.1,0,.1-.1.1-.2h.3c0-.1.2,0,.1-.1s.1-.4.3-.3a.7.7,0,0,1,.3.7c-.3,0-.2.4-.2.6s.1-.1.3-.3.7-.6.2-.8,0,.1,0,.2h-.3c.2-.1-.1-.3-.1-.5l.4-.2c.1,0,0-.1.1-.2a.1.1,0,0,1,.2,0c0,.1.1,0,.2.1s.1.2.1.4-.7,1-.2,1.4.6,0,.8-.1h0c.1,0,.2-.2.2-.3s-.2-.5,0-.7h.3c-.2-.9-1.1-.2-1.4-.9s.2-.2.3-.3-.2-.1-.2-.2,0-.1.1-.2.2.2.3.3-.1-.2,0-.2,0,.1,0,.2h.2c0,.2.1,0,.2,0l-.3-.3h-.1a.3.3,0,0,1,0-.4l-.3-.2c.1-.1-.1-.2,0-.3a2.1,2.1,0,0,0,1.3.8c-.1-.1.1-.2.1-.4a4.4,4.4,0,0,0-.2-1c.1-.2.3-.2.4-.3s0-1.1.2-1.4h.2a1.7,1.7,0,0,1-.3-1Z" fill="#c02026"/><path d="M213.7,31.9a1.9,1.9,0,0,0-.2-1.2c.3-.4-.6-1,0-1.3s-.4-.2-.5-.5.4-.2.5-.4-.2-.1-.4,0-.1.4-.2.3,0-.1-.1-.1a.1.1,0,0,1-.1.1c-.1,0-.4-.3-.3-.5s-.2.1-.2.2h-.4c-.2-.4-.4,0-.7,0s-.5.2-.7-.1-.1-.2,0-.3.2-.2.4-.1.1-.3.2-.4.2.2.3.1l-.3-.2c.1-.1,0-.1.1-.2s.1-.3,0-.4,0-.4-.1-.4-.1.1-.2,0h.1a.1.1,0,0,0,.1-.1c0-.1.1-.1.1-.2s-.6-.3-.5-.6-.2-.3-.4-.3,0,.2-.1.2-.3-.3-.5-.3,0-.2.2-.2-.1,0-.1-.1h-.5c0-.3.3-.1.3-.3s-.2-.1-.3-.1a1.2,1.2,0,0,1-.1-.8c-.1.1-.2-.2-.2-.1s-.1.5-.1.6-.4-.2-.5-.2h.1c-.2,0,0-.2-.2-.2s-.1.1,0,.2,0-.1-.1-.1v.2l-1.1-.6c.1-.1.1,0,.1-.1s0-.1-.1-.2-.5,0-.8.1.2,0,.2.1l-.5.2-.3-.3c-.1.1-.1.1-.1.2s-.3-.5-.6-.5.1.3.1.5a.7.7,0,0,1-.6.7c-.2.2-.1.5-.3.6s-.4-.2-.5-.2.1.1.2,0,.1.2,0,.3-.3.4-.4.4.1.1.2.2l-.3.4V26a.5.5,0,0,1,.1.3h-.2v.3c0,.1.1.2.1.4h0c.1,0,.2.2.2.4h0a1.1,1.1,0,0,1,.1.8.7.7,0,0,1-.1.5h0c0,.1.1.1,0,.2h.1c0,.1-.2.4.1.4s-.1-.3.1-.3v1l.2.2c-.1,0,0,.2-.1.3h.3l.3.2h.1l.3.7h-.1a.4.4,0,0,0,.7.1.8.8,0,0,1,.7.4c0-.2.1-.1.3,0h.3c-.1-.1.1-.1.1-.1h.1c-.1-.1,0-.1,0-.2s-.1.2-.2.1,0-.2.2-.2a.2.2,0,1,1,0-.4h.4v-.2h.2a.1.1,0,0,1,.1-.1s-.1.1,0,.1h.1c0,.1,0,.1.1.1s.4-.3.7-.4.1,0,.1.1h-.1a.5.5,0,0,0,.4.3c.2.2.2.6.4.8h0c.1.1.1.3.3.3s0,.2,0,.2h.1c.5.3.8.8,1.5,1.1h.6c0,.1.4.1.3,0s.1.1.2,0,.2,0,.2-.1a.1.1,0,0,0,.1.1v-.3c.2.1.3-.2.4-.1s.1-.1.1-.2.1.1.1,0,.2-.7.4-.9S213.8,32.1,213.7,31.9Zm-4.3-3.6c.1,0,.1.1.1.2s-.1-.1-.2,0S209.4,28.4,209.4,28.3Zm.2.8-.3-.2.2-.3C209.7,28.8,209.5,28.9,209.6,29.1Zm0-1c.2-.1.6.1.7.2S209.7,28.3,209.6,28.1Z" fill="#c02026"/><path d="M210.2,28.8h.2C210.3,28.7,210.3,28.7,210.2,28.8Z" fill="#c02026" fill-rule="evenodd"/><path d="M208.9,23c0,.1-.1.1,0,.2s0,0-.1.2h-.1l.2-.2c-.1,0-.1,0-.1-.1S208.8,23.1,208.9,23Z" fill="#c02026" fill-rule="evenodd"/><path d="M208.3,23.4c0,.2-.1.1-.2.2s-.1-.3-.2-.4h.1C208.1,23.4,208.2,23.1,208.3,23.4Z" fill="#c02026" fill-rule="evenodd"/><path d="M227.6,41h.1c.1.1.1.1.2,0S227.7,41.1,227.6,41Z" fill="#c02026" fill-rule="evenodd"/><path d="M204.2,20.2c-.4.5-.7.4-1.1.5s.3-.4.4-.6.1-.5.3-.8S204,19.9,204.2,20.2Z" fill="#c02026" fill-rule="evenodd"/><path d="M205.6,21.9h.1c0,.1,0,.1-.1.2S205.5,21.9,205.6,21.9Z" fill="#c02026" fill-rule="evenodd"/><path d="M205.9,22.2c-.1.1,0,.2-.1.3h-.1c-.2.1-.1-.2-.2-.2Z" fill="#c02026" fill-rule="evenodd"/><path d="M205.8,22.5v.2c0,.1-.1,0,0-.1s0,0-.1-.1h.1Z" fill="#c02026" fill-rule="evenodd"/><path d="M225.4,42.2a.9.9,0,0,1-.1,1C225.2,42.9,225,42.6,225.4,42.2Zm0,.5c-.1-.1,0-.2-.1-.3h0C225.3,42.6,225.3,42.7,225.4,42.7Z" fill="#c02026" fill-rule="evenodd"/><path d="M198.8,20a2.7,2.7,0,0,1,0-.9C199.1,19.4,198.8,19.8,198.8,20Z" fill="#c02026" fill-rule="evenodd"/><path d="M202.6,22.4h0c.1.1,0,.2.1.1s0,.1-.1.1a.1.1,0,0,0,.2,0s-.1.1.1.2-.2-.1-.2-.1-.2.2-.3.1h.1c0-.2.2-.1,0-.3S202.5,22.5,202.6,22.4Z" fill="#c02026" fill-rule="evenodd"/><path d="M224,41.7h-.1c-.1.2-.4-.1-.5-.2s.1.1.4,0v.2C223.9,41.7,223.9,41.6,224,41.7Z" fill="#c02026" fill-rule="evenodd"/><path d="M190.2,12.9c0,.2.2.2.1.4S190.1,12.9,190.2,12.9Z" fill="#c02026" fill-rule="evenodd"/><path d="M214,35.5c-.1-.1,0-.1,0-.1h.4l.2.3c-.2.2-.4-.1-.6.1S214.1,35.5,214,35.5Z" fill="#c02026" fill-rule="evenodd"/><path d="M198.7,24c.1-.1.1,0,.1,0h0c-.2-.1,0,.1-.1.1h-.1C198.6,24,198.7,24.1,198.7,24Z" fill="#c02026" fill-rule="evenodd"/><path d="M220.4,43.3c.2.2,0,.4.1.6h-.1c.2.1-.1,0,.1.1a.1.1,0,0,0-.1.1c-.1,0-.1-.2-.1-.2s.1,0,0-.1.1.1.1-.1-.1,0,0,0h-.1c-.1,0,0-.2,0-.3a.1.1,0,0,0,.1.1C220.5,43.5,220.5,43.4,220.4,43.3Z" fill="#c02026" fill-rule="evenodd"/><path d="M194,20.2h.1c-.1.2,0,.4-.2.7A1.7,1.7,0,0,0,194,20.2Z" fill="#c02026" fill-rule="evenodd"/><path d="M196,22.2c.1-.1,0-.1-.1-.2s.1.1.2,0-.1.3.1.4h0C196,22.4,196.1,22.2,196,22.2Z" fill="#c02026" fill-rule="evenodd"/><path d="M196.3,22.8h.2c0,.1.1.2.1.3s-.2-.1-.1-.1-.2.3-.3.5,0-.2-.1-.2h.1c-.2-.1-.1-.2-.1-.3s.1-.1,0-.1.1,0,0,.1Z" fill="#c02026" fill-rule="evenodd"/><path d="M194,21c-.1,0-.1,0-.1.1s0-.2.1-.2,0,.4-.2.3Z" fill="#c02026" fill-rule="evenodd"/><path d="M194,21.4c-.1,0,0,.1-.1-.1s0,.3-.1.4v-.3s.1,0,0-.1h.2a.1.1,0,0,1,0,.2Z" fill="#c02026" fill-rule="evenodd"/><path d="M189,17.5c.1-.1-.4-.3-.2-.5h.1c-.1.1,0,.1-.1.1s.4.1.2.2,0-.1-.1-.1.2.1.2.3.1-.3.1-.3.2.2.1.4h-.1s0,.1.1,0a.3.3,0,0,1-.1.2h.2c0,.1.1.2,0,.3s-.1-.1-.2-.1l.3.2v.2c-.2-.2-.2-.4-.3-.5S189.1,17.6,189,17.5Z" fill="#c02026" fill-rule="evenodd"/><path d="M208.8,35c.2-.1.5.1.8.2s-.9-.3-1.2-.2-.1-.1-.1-.2Z" fill="#c02026" fill-rule="evenodd"/><path d="M203.3,29.8c.1-.1-.2.1-.2.2s0,0-.1.1,0-.1-.1-.2Z" fill="#c02026" fill-rule="evenodd"/><path d="M213.3,38.7c0-.1.1,0,.1,0s.1-.1.2,0h-.3Z" fill="#c02026" fill-rule="evenodd"/><path d="M212.7,38.4c-.1.1-.1.1-.1.2s-.1-.2-.2-.2.1,0,.2-.1h-.3c0-.1,0-.1-.1-.1S212.4,38.3,212.7,38.4Z" fill="#c02026" fill-rule="evenodd"/><path d="M203.3,30.7c-.2.2,0-.1-.2-.1h.2v-.2h.3c0,.1-.2.3-.3.2S203.3,30.8,203.3,30.7Z" fill="#c02026" fill-rule="evenodd"/><path d="M189.3,20.2c0,.1-.2.2,0,.3a.6.6,0,0,1-.2-.7c.2.2,0,.1.1,0s-.3-.5-.5-.6.7.7.9,1.1S189.3,20.3,189.3,20.2Z" fill="#c02026" fill-rule="evenodd"/><path d="M204.1,33.2h0c0-.1-.1-.1-.1,0s0-.1.1-.2v.2H204S204.1,33.1,204.1,33.2Z" fill="#c02026" fill-rule="evenodd"/><path d="M189,20.2v.2c-.1,0,0-.2,0-.2s-.1.1-.1,0h0C188.9,20,188.8,20.3,189,20.2Z" fill="#c02026" fill-rule="evenodd"/><path d="M210.3,39.3c0,.1-.1.1.1.2s-.1.1-.2,0S210.2,39.3,210.3,39.3Z" fill="#c02026" fill-rule="evenodd"/><path d="M189.9,22.1c.1-.1,0,.1.1.2s-.1,0-.1-.1h0Z" fill="#c02026" fill-rule="evenodd"/><path d="M205.8,37.1a.2.2,0,0,0,0,.3C205.6,37.4,205.6,37,205.8,37.1Z" fill="#c02026" fill-rule="evenodd"/><path d="M205.1,37.1c.1,0,.1,0,.1-.1s.1.2.1.2h0c0,.1-.2,0-.2-.1h.1C205.3,37.1,205.1,37.2,205.1,37.1Z" fill="#c02026" fill-rule="evenodd"/><path d="M186.2,20.9h0c.1-.1.1,0,.2.1a.1.1,0,0,0-.1.1c-.1-.1-.3-.1-.2-.3S186.1,20.8,186.2,20.9Z" fill="#c02026" fill-rule="evenodd"/><path d="M202.2,35.2h.1c.3-.2.5.3.5.4s-.1.2-.1.4h-.4l-.4-.3c.1-.1-.1-.2,0-.2s0-.1-.1-.1A.4.4,0,0,0,202.2,35.2Zm.2.4c.1,0,.1.2.3.1s-.1-.2-.2-.1h0A.1.1,0,0,0,202.4,35.6Zm.1.3h-.3c0,.1.2,0,.3.2a.3.3,0,0,0,.1-.2Z" fill="#c02026" fill-rule="evenodd"/><path d="M183.3,19.5c-.1-.3.3-.3.1-.4s.1.2.2.3Z" fill="#c02026" fill-rule="evenodd"/><path d="M204.3,37.5c-.1,0-.1,0-.1.1h0c-.1-.1-.1,0-.1,0s-.2-.2.1-.2,0,.3.1.3-.1.1-.1,0Z" fill="#c02026" fill-rule="evenodd"/><path d="M215.3,48.3c0,.1,0,.1-.1.1H215c.1-.1.2.1.2-.1h.2c-.1-.1-.1,0-.1-.1s.1,0,.1.1,0-.2,0-.3-.3-.1-.4,0,.1.2.1.2-.1,0-.1-.1,0,.2,0,.3-.1-.3-.1-.4l.4-.2c0,.1,0,.2.1.1a.9.9,0,0,1,.1.5A.1.1,0,0,1,215.3,48.3Z" fill="#c02026" fill-rule="evenodd"/><path d="M209,44.5a.4.4,0,0,1-.1.3c-.4-.1-.5-.3-.8-.5s.1-.2,0-.2S208.7,44.2,209,44.5Zm-.1.1c-.1-.1-.3-.1-.3-.3S208.7,44.6,208.9,44.6Z" fill="#c02026" fill-rule="evenodd"/><path d="M184,24c0-.1.1,0,.2,0h-.1a.1.1,0,0,0,.1.1H184C184,24,184.1,24,184,24Z" fill="#c02026" fill-rule="evenodd"/><path d="M204.2,43.1l.4.3-.2.2C204.2,43.4,204.1,43.4,204.2,43.1Z" fill="#c02026" fill-rule="evenodd"/><path d="M198.6,39.2h.1c0,.1-.2.2-.1.3s-.1.1-.1.2S198.6,39.3,198.6,39.2Z" fill="#c02026" fill-rule="evenodd"/><path d="M197,39.3c.1.1,0,.3,0,.4h-.1c.1.3-.2.6-.2.8h0c-.1-.2.1-.2,0-.4s-.1-.3.1-.2S196.9,39.4,197,39.3Z" fill="#c02026" fill-rule="evenodd"/><path d="M197.2,41.8c0,.1.2.1.1.2h-.1c-.1,0,0-.2.1-.1Z" fill="#c02026" fill-rule="evenodd"/><path d="M197.2,42.4c-.1-.1.1-.3-.1-.3s0-.1.2-.1S197.3,42.3,197.2,42.4Z" fill="#c02026" fill-rule="evenodd"/><path d="M197.5,42.5c-.1,0-.1-.2-.2-.4s.1.1.1,0S197.5,42.3,197.5,42.5Z" fill="#c02026" fill-rule="evenodd"/><path d="M198.7,46s-.1-.3.1-.2h-.1c.1-.1.1.2.1.2Z" fill="#c02026" fill-rule="evenodd"/><path d="M190.3,39.5h0c-.1,0-.1.1,0,0V40a.4.4,0,0,1-.2-.5C190.2,39.5,190.2,39.6,190.3,39.5Z" fill="#c02026" fill-rule="evenodd"/><path d="M190.1,40.2c.1,0,.1.2.1.2s-.2.1-.3,0h.2S190.2,40.3,190.1,40.2Z" fill="#c02026" fill-rule="evenodd"/><path d="M190.1,40.4l-.6.7c-.1,0,0,0-.1-.1l.5-.6C190,40.5,190,40.5,190.1,40.4Z" fill="#c02026" fill-rule="evenodd"/><path d="M189.1,40c0-.1.1.1-.1.2s-.2-.1-.1-.2a.1.1,0,0,1,.1.1Z" fill="#c02026" fill-rule="evenodd"/><path d="M199.5,49.5c-.1,0,0,.1-.1.2s.2.1.3.3-.2.4-.4.5-.1-.1-.3.1-.6-.2-.7-.5a.1.1,0,0,0,.1-.1.5.5,0,0,1,.2-.7h.1l.2-.3A1.5,1.5,0,0,1,199.5,49.5Z" fill="#c02026" fill-rule="evenodd"/><path d="M194.7,52.5c-.1-.1-.1.1-.2,0h.2c.2.3-.2.8-.4,1s.1-.4.1-.6,0,.1.1.2S194.6,52.7,194.7,52.5Z" fill="#c02026" fill-rule="evenodd"/><path d="M204.3,60.8V61c.1,0,.1,0,.1-.1s0,.2-.1.1A.1.1,0,0,1,204.3,60.8Z" fill="#c02026" fill-rule="evenodd"/><path d="M204.9,65.2h-.3v.2C204.3,65.5,204.7,65,204.9,65.2Z" fill="#c02026" fill-rule="evenodd"/><path d="M204.8,65.6h-.1a.1.1,0,0,1,.2,0c.1-.1,0,0-.1-.1h.1c.1.1.1.1,0,.3h-.3C204.7,65.4,204.7,65.6,204.8,65.6Z" fill="#c02026" fill-rule="evenodd"/><path d="M198.6,63c-.2,0-.1.1-.2,0s.1,0,.2,0l.2.2c-.1.1-.1-.2-.2,0Z" fill="#c02026" fill-rule="evenodd"/><path d="M192.7,58.8c-.1,0-.1.1-.2,0s.1.1,0,.2,0-.1-.1-.1a.1.1,0,0,0,.1-.1Z" fill="#c02026" fill-rule="evenodd"/><path d="M162.2,51.7c0,.3-.5.7-.7.7a.9.9,0,0,1,.1,1.1c.1.1.4.4.2.6s0,.1.1.1l.5.2h0a.5.5,0,0,0,.4.2,1,1,0,0,1,.5.4c.4-.3,1,.1,1.3-.2h-.1l.9-.5c-.1.1,0-.3.1-.2s0-.3,0-.3,0,.1-.1,0,.2-.2.1-.3h.3c-.1,0-.1-.2,0-.2s0-.3-.2-.3-.1-.2.1-.3h-.1c0-.3-.1-.8-.4-.8s-.5-.3-.7-.6h0c-.3,0-.5.1-.7-.1s-.3,0-.5,0-.3.2-.2.4-.3-.1-.3.1h-.4a.1.1,0,0,0-.1.1h-.2C162.2,51.5,162.2,51.5,162.2,51.7Z" fill="#c02026" fill-rule="evenodd"/><path d="M160.3,51.6h0l.2.2s-.2-.1-.2-.2h-.1C160.3,51.5,160.3,51.6,160.3,51.6Z" fill="#c02026" fill-rule="evenodd"/><path d="M160.8,52.2h-.1a.3.3,0,0,1,.1-.2c0,.1.1.2.1.3s-.1.1-.2,0Z" fill="#c02026" fill-rule="evenodd"/><path d="M217.3,12.8c0,.2-.2.3-.4.4S217,12.5,217.3,12.8Z" fill="#c02026" fill-rule="evenodd"/><path d="M215.8,11.8c.2-.1.2-.7.6-.6s-.2-.2-.1-.3.1.1.1.2,0-.2.2-.1v-.2s0,.2-.1.1.1-.1.1-.2v.2a18.8,18.8,0,0,1-1.2,1.8c-.1,0-.1-.2-.2-.1s0-.7.3-.8h.1C215.6,11.8,215.8,11.7,215.8,11.8Zm.3-.2a.5.5,0,0,0,.2-.4C216.1,11.4,216.1,11.4,216.1,11.6Z" fill="#c02026" fill-rule="evenodd"/><path d="M213.5,12.2h-.1c-.1-.1,0-.2.2-.3s0,.2-.1.2h.1c.1.1-.2.3-.1.4s-.2.3-.3.1S213.2,12.1,213.5,12.2Z" fill="#c02026" fill-rule="evenodd"/><path d="M218.1,16.6c.1.1-.1.3-.2.2S217.9,16.6,218.1,16.6Z" fill="#c02026" fill-rule="evenodd"/><path d="M197.3,1.1c-.4-.2-.4-.8-.3-1.1S197.6.7,197.3,1.1Z" fill="#c02026" fill-rule="evenodd"/><path d="M216,18.1c.1,0,.1-.1.2,0s-.4.3-.6.3-.2.3-.4.4.4-.4.6-.7h.1c.1-.1,0-.1,0-.2s.2.1.1,0h.1c.1-.2.2-.1.2-.3h.3l-.4.3C216.2,18,216.1,18,216,18.1Z" fill="#c02026" fill-rule="evenodd"/><path d="M218.8,20.2c.1.1-.1.3-.2.3a.7.7,0,0,1,.1-.5C218.8,20.1,218.7,20.2,218.8,20.2Z" fill="#c02026" fill-rule="evenodd"/><path d="M201.7,5.2c.3.4.5,1.3-.1,1.5A1.1,1.1,0,0,1,201.7,5.2Z" fill="#c02026" fill-rule="evenodd"/><path d="M197.5,2.5c.2.2.1.3.2.4s-.3-.2-.4-.3S197.5,2.7,197.5,2.5Z" fill="#c02026" fill-rule="evenodd"/><path d="M211.3,18.1c.1.3-.1.4-.2.5S211.1,18.2,211.3,18.1Z" fill="#c02026" fill-rule="evenodd"/><path d="M230.9,35.9a.5.5,0,0,1,.1.6C230.7,36.6,230.6,36.2,230.9,35.9Z" fill="#c02026" fill-rule="evenodd"/><path d="M206.1,15.6a.8.8,0,0,1,.2.7C206.2,16.1,205.9,15.8,206.1,15.6Z" fill="#c02026" fill-rule="evenodd"/><path d="M213.5,23.4c0-.5.6-.9.8-.6S213.9,23.7,213.5,23.4Z" fill="#c02026" fill-rule="evenodd"/><path d="M211.7,22.2c-.1.1-.2,0-.2.2s-.9.1-1.4.2.3-.3.4-.6-.1.1.1.2S211.5,21.7,211.7,22.2Z" fill="#c02026" fill-rule="evenodd"/><path d="M209.4,22.5c-.4.5-1-.5-.8-.8S209.4,22.2,209.4,22.5Z" fill="#c02026" fill-rule="evenodd"/><path d="M213.8,27.5c.1.1-.2.3-.3.1l.2-.2A.1.1,0,0,0,213.8,27.5Z" fill="#c02026" fill-rule="evenodd"/><path d="M213.1,27.3c0,.2-.2.5-.4.4s0-.2.1-.3h.1c.1,0,0-.1,0-.1Z" fill="#c02026" fill-rule="evenodd"/><path d="M201.6,20.6c-.3,0,0-.3,0-.4s-.2.1-.3,0,.2-.2.1-.3l.2-.3c.1-.1-.1-.3-.1-.5s.4-.9.8-1.2.6-.4,1-.3-.6.8-.7,1.4h0c-.1.2-.4.6-.7.5A9.7,9.7,0,0,0,201.6,20.6Z" fill="#c02026" fill-rule="evenodd"/><path d="M194,13.3c-.3-.1-.3-.3-.4-.5s0-.1.1-.1-.3-.5-.3-.8A2.2,2.2,0,0,1,194,13.3Z" fill="#c02026" fill-rule="evenodd"/><path d="M215.6,32.8c-.1.1-.2.2-.3.1S215.4,32.6,215.6,32.8Z" fill="#c02026" fill-rule="evenodd"/><path d="M198.1,17.6c.1,0,0,.4-.2.3s0-.1.1-.2.1-.2.2-.1Z" fill="#c02026" fill-rule="evenodd"/><path d="M221.1,41s.1.1-.1.2-.2-.3-.4-.1-.2-.3-.3-.2-.2-.1-.1-.2-.4-.4-.6-.7,0-.5.1-.7h.3c.1-.2.1-.4.3-.5s.2.1.5.1.2-.1.1-.2.7.4,1,.4.1.8.2,1.3-.5.5-.9.7S221.2,41.1,221.1,41Z" fill="#c02026" fill-rule="evenodd"/><path d="M196.2,20.2h-.3c-.8-.4-.6-1.1-.6-1.7s0-1.3.7-1.5.2.5.3.7.2.4.2.5-.2.4-.3.6S196.3,19.8,196.2,20.2Z" fill="#c02026" fill-rule="evenodd"/><path d="M194.9,18.2c-.4.2-.6-.4-1-.4s-.2-.3-.2-.6a.3.3,0,0,0,.1-.2c.1-.3-.1-.7.3-.7S195.7,17.4,194.9,18.2Z" fill="#c02026" fill-rule="evenodd"/><path d="M200.7,23.5c-.3,0-.4-.5-.3-.6s.1,0,0-.2A.6.6,0,0,1,200.7,23.5Z" fill="#c02026" fill-rule="evenodd"/><path d="M214.2,36.5c.1-.2.3-.1.4,0s-.1,0-.1.1S214.3,36.6,214.2,36.5Z" fill="#c02026" fill-rule="evenodd"/><path d="M211.2,35.1c.2.1.1.2,0,.3l-.6-.2C210.8,34.9,211,35.2,211.2,35.1Z" fill="#c02026" fill-rule="evenodd"/><path d="M195.3,21.8a1.2,1.2,0,0,1-.5-.5C195,21.3,195.4,21.6,195.3,21.8Z" fill="#c02026" fill-rule="evenodd"/><path d="M206.4,34.2c.2.2.5.2.8.5s-.1.1,0,.1-.4-.2-.6-.1-.4-.1-.5-.4S206.3,34.5,206.4,34.2Z" fill="#c02026" fill-rule="evenodd"/><path d="M205.3,33.9c.1.1.2.1.2.2s-.1.4-.3.2v-.4C205.3,34,205.3,33.9,205.3,33.9Z" fill="#c02026" fill-rule="evenodd"/><path d="M203.9,34.2c.1-.2-.1-.1-.1-.2s.3.2.4.1h-.1a.9.9,0,0,1,.5.3,1.5,1.5,0,0,1-.9.2c-.1-.2-.1-.3.1-.5S203.8,34.1,203.9,34.2Z" fill="#c02026" fill-rule="evenodd"/><path d="M202.8,33.6h.1c0,.1-.2.4-.4.2S202.6,33.7,202.8,33.6Z" fill="#c02026" fill-rule="evenodd"/><path d="M202.9,35.8c.4-.2.7.4.8.5A1.2,1.2,0,0,1,202.9,35.8Z" fill="#c02026" fill-rule="evenodd"/><path d="M205.9,38.3c-.1.2-.4-.2-.4-.3S205.9,38.1,205.9,38.3Zm-.3-.2c0,.1.1,0,.1.2S205.6,38,205.6,38.1Z" fill="#c02026" fill-rule="evenodd"/><path d="M208.9,41.2c.2.3.7.4.9.7s-.6-.1-.7-.2-.7-.9-1.2-1.2.2,0,.3.2.2-.2.3-.3S208.9,41,208.9,41.2Z" fill="#c02026" fill-rule="evenodd"/><path d="M217,49.8h0a.4.4,0,0,1,.1-.3c.2.2.1.2.2.4Z" fill="#c02026" fill-rule="evenodd"/><path d="M203,38.1c-.1-.1-.5-.4-.4-.7s.6.6.5.9l-.2-.3C203,38,203,38,203,38.1Z" fill="#c02026" fill-rule="evenodd"/><path d="M181.9,22c-.2,0-.5-.2-.2-.3S182.1,21.8,181.9,22Z" fill="#c02026" fill-rule="evenodd"/><path d="M196.9,41.1c.2.1.1.2.2.3S196.8,41.2,196.9,41.1Z" fill="#c02026" fill-rule="evenodd"/><path d="M198.4,43.3h0c-.1,0-.2-.1-.1-.1Z" fill="#c02026" fill-rule="evenodd"/><path d="M181.9,34.9c0,.1.2.2.2.3a.4.4,0,0,1-.4.2C181.5,35.3,181.6,35,181.9,34.9Z" fill="#c02026" fill-rule="evenodd"/><path d="M190.6,44c.1-.1.1-.4.2-.3s.3-.6.5-.8S190.8,43.8,190.6,44Z" fill="#c02026" fill-rule="evenodd"/><path d="M198.6,35.2c-1.4,1.4-1,5.7-1,7.7,0,5.3.8,10.9.3,16.2-.1.6.1,1.9-.7,2.2s-.8-2.7-.8-3.4c-.1-2.5-.2-5.1-.2-7.6s-.2-5.9-.4-8.8,0-5.3-2.2-6.5-2.9-4.4.8-3.9" fill="#c02026" fill-rule="evenodd"/><rect y="220.3" width="8.6" height="29.71"/><rect y="209.2" width="8.6" height="7.2"/><path d="M15.1,218.5h3.7a6.2,6.2,0,0,1-.8,3.1,4.5,4.5,0,0,1-2.7,2h-.2V228h.3a8.5,8.5,0,0,0,3.4-1.1,7.5,7.5,0,0,0,2.6-2.1,7.4,7.4,0,0,0,1.7-3,10.5,10.5,0,0,0,.6-3.6v-8.9H15.1Z"/><path d="M70,225.3a8.9,8.9,0,0,0-2.3-3.3,8.5,8.5,0,0,0-3.5-1.9,14.9,14.9,0,0,0-4.3-.6,9.8,9.8,0,0,0-5.5,1.5,14,14,0,0,0-3.3,3.1,7.2,7.2,0,0,0-3.4-3.5,12.3,12.3,0,0,0-5.1-1.1,11.5,11.5,0,0,0-5.3,1.3,10.7,10.7,0,0,0-3.4,3v-3.5H25.7V250h8.6V232.8a7.8,7.8,0,0,1,.6-3.3,5.9,5.9,0,0,1,1.4-1.9,3.5,3.5,0,0,1,1.7-.9l1.4-.3a5.5,5.5,0,0,1,2.8.6,3.1,3.1,0,0,1,1.2,1.6,5.6,5.6,0,0,1,.5,2.3c0,.8.1,1.7.1,2.5V250h8.6V233.5a11,11,0,0,1,.2-2.6,5.6,5.6,0,0,1,.7-2.3A7.5,7.5,0,0,1,55,227a5,5,0,0,1,2.6-.6,4.4,4.4,0,0,1,2.5.6,3.2,3.2,0,0,1,1.4,1.4,6.5,6.5,0,0,1,.6,2.1,24.4,24.4,0,0,1,.1,2.7V250h8.6V230.2A14.4,14.4,0,0,0,70,225.3Z"/><path d="M87.8,222.1h0l-.3-.5a5.4,5.4,0,0,0-.7-1.3l-.3-.6c-1.2-2.3-4-7-4.2-7.2a1.6,1.6,0,0,0-1.5-.9,1.6,1.6,0,0,0-1.6.8,39.6,39.6,0,0,0-4.6,11.4,2,2,0,0,0,1.5,2.2h.4a1.9,1.9,0,0,0,1.8-1.5,31.1,31.1,0,0,1,2.5-7.3c.9,1.4,1.9,3.1,2.5,4.3l.3.6a6.5,6.5,0,0,1,.8,1.7,1.9,1.9,0,0,0,3.6-.8A1.5,1.5,0,0,0,87.8,222.1Z" fill="#c02026"/><path d="M70.6,206.7a65.8,65.8,0,0,1-1.2-8.6c-.2-2.9-.5-5.9-.8-8.8h0a1.6,1.6,0,0,0-1-.8H66a1.5,1.5,0,0,0-1.3,1.5c.3,4.6.6,8.3.8,11.1-.7-1.1-1.6-2.5-2.5-4.1a57.1,57.1,0,0,0-3.8-5.9H59c-1-.5-1.7-.7-2.2-.5s-1.6,1.2-1.6,1.6.4,3.5,1,8.7c.4,3.5.9,6.4,1.3,8.7s.5,2.6.8,3.8l.3,1h0a1.6,1.6,0,0,0,1.2,1.1h1.5a1.5,1.5,0,0,0,.8-.5,1.8,1.8,0,0,0,.4-2c-.4-1.6-.7-3.3-1-4.9a60.1,60.1,0,0,1-1.2-8.2A103.4,103.4,0,0,0,66.9,210a2.6,2.6,0,0,0,2.6,1.2,2,2,0,0,0,1.3-.8,1.6,1.6,0,0,0,.2-1.5C70.9,208.2,70.7,207.5,70.6,206.7Z" fill="#c02026"/><path d="M77.9,206.5l1-.3c2.4-1.1,4-3.3,4.7-6.6a3.1,3.1,0,0,0,0-1.9,8.5,8.5,0,0,0-1.9-3.8,4.4,4.4,0,0,0-3-1.5,7.7,7.7,0,0,1-2.4-.5,1.7,1.7,0,0,0-1.4-.3,3.4,3.4,0,0,0-2.1,1.7,9,9,0,0,0-1.2,2.4,11.4,11.4,0,0,0-.4,5.7,6,6,0,0,0,2.1,3.7,7.4,7.4,0,0,0,3.8,1.4Zm-2-4.4a3.9,3.9,0,0,1-1-1.9,3.5,3.5,0,0,1,.3-2.5.1.1,0,0,0,.1.1,1.4,1.4,0,0,0,1.3,0,3.2,3.2,0,0,0,1-1.2,1.6,1.6,0,0,1,.5-.6h0c.5.1,1,.9,1.3,2.1h0A3.9,3.9,0,0,1,79,201c-.6,1.2-1.2,1.8-2,2S76.7,203,75.9,202.1Z" fill="#c02026"/><path d="M98.7,182.8a1.2,1.2,0,0,0-1.2-1h-.1a1.2,1.2,0,0,0-1-.2,5.2,5.2,0,0,0-2.1.6l-1.7.8h-.1l-2.6.8a6.6,6.6,0,0,1-2.4.1H87a11.2,11.2,0,0,1-3.8,1.8,22.3,22.3,0,0,0-4.2,1.5h-.2a1.3,1.3,0,0,0-.2,1c0,.2,0,.2.6,1.1h.3a4.1,4.1,0,0,0,3.1.5l2.5-.8,1.7-.5c.3,1.5.6,3.5.9,6.1s.7,5.4,1,6.8l.6,2.6a4.4,4.4,0,0,0,1.2,1.9,2.7,2.7,0,0,0,1.7.6h.5a1.3,1.3,0,0,0,1.1-1.2,4.5,4.5,0,0,0-.1-1.1l-.9-4c-.6-3.4-1.3-7.8-1.9-12.9l6.6-2.6a2.4,2.4,0,0,0,1.2-2.1h0Z" fill="#c02026"/><path d="M103.1,209.8v40.4H94.5V209.8Z"/><path d="M138.1,235.2c0,7.5-4.2,15.8-15.6,15.8-8.2,0-15.7-4.8-15.7-15.8,0-9.2,5.6-16.5,16.8-15.8S138.1,229.7,138.1,235.2Zm-21.2-5.9a10.5,10.5,0,0,0-1.5,5.8c0,4.8,2.3,8.9,7.1,8.9s6.9-3.8,6.9-8.5-.8-5.9-2.4-7.5a6.3,6.3,0,0,0-5-1.7A5.9,5.9,0,0,0,116.9,229.3Z"/><path d="M152.3,242l4.9-21.7H166l-9.4,29.9h-9l-9.5-29.9h9.1Z"/><path d="M190.5,223a8.7,8.7,0,0,1,2.9-2.3,13.1,13.1,0,0,1,5.3-1.1,10.2,10.2,0,0,1,5.2,1.2c3.1,1.6,3.9,4.3,3.9,8.9v20.5h-8.5V233.3c0-2.6-.1-3.6-.4-4.4a4.1,4.1,0,0,0-3.9-2.3c-4.6,0-4.6,3.7-4.6,7.4v16.2h-8.6V220.3h8.7Z"/><path d="M169.7,209.7h8.5v6.8h-8.5Zm0,10.6h8.5v29.9h-8.5Z"/><path d="M232.4,209.7h8.5v6.8h-8.5Zm0,10.6h8.5v29.9h-8.5Z"/><path d="M248.8,213.4h8.6v6.9H263v6.8h-5.7v12.7c0,1.8,0,3.4,2.3,3.4h3V250a37.5,37.5,0,0,1-4.5.4c-3,0-6.2-.2-8.1-2.9s-1.2-3.9-1.2-6.8V227.1h-4.2v-6.8h4.2Z"/><path d="M220.3,218.4v-8.6h-8.9v8.6h3.7c0,3.1-1.6,5.6-3.7,5.6v4C216.3,228,220.3,223.7,220.3,218.4Z"/></svg>